<svg xmlns="http://www.w3.org/2000/svg" viewBox="0 0 500 500" width="500" height="500" style="width: 100%; height: 100%; transform: translate3d(0px, 0px, 0px);" preserveAspectRatio="xMidYMid meet"><defs><clipPath id="__lottie_element_149"><rect width="500" height="500" x="0" y="0"></rect></clipPath></defs><g clip-path="url(#__lottie_element_149)"><g style="display: block;" transform="matrix(1,0,0,1,241,246)" opacity="1"><g opacity="1" transform="matrix(1.130120038986206,0,0,1.130120038986206,-48,-33)"><path fill="rgb(255,255,159)" fill-opacity="1" d=" M0,-142 C78.36979675292969,-142 142,-78.36979675292969 142,0 C142,78.36979675292969 78.36979675292969,142 0,142 C-78.36979675292969,142 -142,78.36979675292969 -142,0 C-142,-78.36979675292969 -78.36979675292969,-142 0,-142z"></path></g></g><g style="display: block;" transform="matrix(3,0,0,3,-41,-39.5)" opacity="1"><g opacity="1" transform="matrix(1,0,0,1,132.0449981689453,98.27899932861328)"><path fill="rgb(254,254,254)" fill-opacity="1" d=" M22.27400016784668,-9.598999977111816 C22.27400016784668,-9.598999977111816 -22.27400016784668,-9.598999977111816 -22.27400016784668,-9.598999977111816 C-23.958999633789062,-9.598999977111816 -25.336999893188477,-8.220999717712402 -25.336999893188477,-6.535999774932861 C-25.336999893188477,-6.535999774932861 -25.336999893188477,5.86899995803833 -25.336999893188477,5.86899995803833 C-25.336999893188477,7.553999900817871 -23.958999633789062,8.932999610900879 -22.27400016784668,8.932999610900879 C-22.27400016784668,8.932999610900879 22.27400016784668,8.932999610900879 22.27400016784668,8.932999610900879 C23.958999633789062,8.932999610900879 25.336999893188477,7.553999900817871 25.336999893188477,5.86899995803833 C25.336999893188477,5.86899995803833 25.336999893188477,-6.535999774932861 25.336999893188477,-6.535999774932861 C25.336999893188477,-8.220999717712402 23.958999633789062,-9.598999977111816 22.27400016784668,-9.598999977111816z"></path><path stroke-linecap="round" stroke-linejoin="round" fill-opacity="0" stroke="rgb(0,0,80)" stroke-opacity="1" stroke-width="2.002" d=" M22.27400016784668,-9.598999977111816 C22.27400016784668,-9.598999977111816 -22.27400016784668,-9.598999977111816 -22.27400016784668,-9.598999977111816 C-23.958999633789062,-9.598999977111816 -25.336999893188477,-8.220999717712402 -25.336999893188477,-6.535999774932861 C-25.336999893188477,-6.535999774932861 -25.336999893188477,5.86899995803833 -25.336999893188477,5.86899995803833 C-25.336999893188477,7.553999900817871 -23.958999633789062,8.932999610900879 -22.27400016784668,8.932999610900879 C-22.27400016784668,8.932999610900879 22.27400016784668,8.932999610900879 22.27400016784668,8.932999610900879 C23.958999633789062,8.932999610900879 25.336999893188477,7.553999900817871 25.336999893188477,5.86899995803833 C25.336999893188477,5.86899995803833 25.336999893188477,-6.535999774932861 25.336999893188477,-6.535999774932861 C25.336999893188477,-8.220999717712402 23.958999633789062,-9.598999977111816 22.27400016784668,-9.598999977111816z"></path></g><g opacity="1" transform="matrix(1,0,0,1,136.29100036621094,66.96499633789062)"><path fill="rgb(0,0,80)" fill-opacity="1" d=" M28.850000381469727,-16.983999252319336 C28.850000381469727,-16.983999252319336 -28.850000381469727,-16.983999252319336 -28.850000381469727,-16.983999252319336 C-29.913999557495117,-16.983999252319336 -30.784000396728516,-16.11400032043457 -30.784000396728516,-15.050000190734863 C-30.784000396728516,-15.050000190734863 -30.784000396728516,15.050000190734863 -30.784000396728516,15.050000190734863 C-30.784000396728516,16.11400032043457 -29.913999557495117,16.983999252319336 -28.850000381469727,16.983999252319336 C-28.850000381469727,16.983999252319336 28.850000381469727,16.983999252319336 28.850000381469727,16.983999252319336 C29.913999557495117,16.983999252319336 30.784000396728516,16.11400032043457 30.784000396728516,15.050000190734863 C30.784000396728516,15.050000190734863 30.784000396728516,-15.050000190734863 30.784000396728516,-15.050000190734863 C30.784000396728516,-16.11400032043457 29.913999557495117,-16.983999252319336 28.850000381469727,-16.983999252319336z"></path></g></g><g style="display: block;" transform="matrix(3,0,0,3,-41,-39.5)" opacity="1"><g opacity="1" transform="matrix(1,0,0,1,0,0)"><path stroke-linecap="round" stroke-linejoin="round" fill-opacity="0" stroke="rgb(0,0,80)" stroke-opacity="1" stroke-width="2" d=" M131.91700744628906,93.81199645996094 C131.91700744628906,93.81199645996094 134.322998046875,93.81199645996094 134.322998046875,93.81199645996094 M141.05099487304688,93.81199645996094 C141.05099487304688,93.81199645996094 143.45799255371094,93.81199645996094 143.45799255371094,93.81199645996094 M150.18600463867188,93.81199645996094 C150.18600463867188,93.81199645996094 152.5919952392578,93.81199645996094 152.5919952392578,93.81199645996094 M122.78199768066406,98.27899932861328 C122.78199768066406,98.27899932861328 125.18900299072266,98.27899932861328 125.18900299072266,98.27899932861328 M131.91700744628906,98.27899932861328 C131.91700744628906,98.27899932861328 134.322998046875,98.27899932861328 134.322998046875,98.27899932861328 M141.05099487304688,98.27899932861328 C141.05099487304688,98.27899932861328 143.45799255371094,98.27899932861328 143.45799255371094,98.27899932861328 M150.18600463867188,98.27899932861328 C150.18600463867188,98.27899932861328 152.5919952392578,98.27899932861328 152.5919952392578,98.27899932861328 M122.78199768066406,102.74500274658203 C122.78199768066406,102.74500274658203 125.18900299072266,102.74500274658203 125.18900299072266,102.74500274658203 M131.91700744628906,102.74500274658203 C131.91700744628906,102.74500274658203 134.322998046875,102.74500274658203 134.322998046875,102.74500274658203 M141.05099487304688,102.74500274658203 C141.05099487304688,102.74500274658203 143.45799255371094,102.74500274658203 143.45799255371094,102.74500274658203 M150.18600463867188,102.74500274658203 C150.18600463867188,102.74500274658203 152.5919952392578,102.74500274658203 152.5919952392578,102.74500274658203 M113.64800262451172,93.81199645996094 C113.64800262451172,93.81199645996094 116.05500030517578,93.81199645996094 116.05500030517578,93.81199645996094 M113.64800262451172,98.27899932861328 C113.64800262451172,98.27899932861328 116.05500030517578,98.27899932861328 116.05500030517578,98.27899932861328 M113.64800262451172,102.74500274658203 C113.64800262451172,102.74500274658203 116.05500030517578,102.74500274658203 116.05500030517578,102.74500274658203 M122.78199768066406,93.81199645996094 C122.78199768066406,93.81199645996094 125.18900299072266,93.81199645996094 125.18900299072266,93.81199645996094"></path></g></g><g style="display: none;" transform="matrix(0,0,0,3,297.8559875488281,-81.59500122070312)" opacity="1"><path stroke-linecap="round" stroke-linejoin="round" fill-opacity="0" stroke="rgb(254,254,254)" stroke-opacity="1" stroke-width="2" d=" M112.9520034790039,70.94200134277344 C112.9520034790039,70.94200134277344 117.97100067138672,70.93099975585938 117.97100067138672,70.93099975585938"></path></g><g style="display: none;" transform="matrix(0,0,0,3,297.8559875488281,-82.07799530029297)" opacity="1"><path stroke-linecap="round" stroke-linejoin="round" fill-opacity="0" stroke="rgb(254,254,254)" stroke-opacity="1" stroke-width="2" d=" M112.9520034790039,63.941001892089844 C112.9520034790039,63.941001892089844 125.30899810791016,63.941001892089844 125.30899810791016,63.941001892089844"></path></g><g style="display: block;" transform="matrix(0,0,0,3,297.8559875488281,-39.5)" opacity="1"><path stroke-linecap="round" stroke-linejoin="round" fill-opacity="0" stroke="rgb(254,254,254)" stroke-opacity="1" stroke-width="2" d=" M112.9520034790039,56.93899917602539 C112.9520034790039,56.93899917602539 118.01799774169922,56.93899917602539 118.01799774169922,56.93899917602539"></path></g><g style="display: block;" transform="matrix(-2.568016767501831,-1.5508995056152344,-1.5508995056152344,2.568016767501831,684.5947265625,181.19082641601562)" opacity="1"><path fill="rgb(254,254,254)" fill-opacity="1" d=" M135.95799255371094,96.38400268554688 C135.95799255371094,96.38400268554688 135.95799255371094,96.38400268554688 135.95799255371094,96.38400268554688 C133.15699768066406,96.38400268554688 130.86599731445312,98.6760025024414 130.86599731445312,101.47699737548828 C130.86599731445312,101.47699737548828 130.86599731445312,123.61100006103516 130.86599731445312,123.61100006103516 C136.46800231933594,123.61100006103516 141.05099487304688,119.02799987792969 141.05099487304688,113.4260025024414 C141.05099487304688,113.4260025024414 141.05099487304688,101.47699737548828 141.05099487304688,101.47699737548828 C141.05099487304688,98.6760025024414 138.75900268554688,96.38400268554688 135.95799255371094,96.38400268554688z"></path><path stroke-linecap="round" stroke-linejoin="round" fill-opacity="0" stroke="rgb(0,0,80)" stroke-opacity="1" stroke-width="1.998" d=" M135.95799255371094,96.38400268554688 C135.95799255371094,96.38400268554688 135.95799255371094,96.38400268554688 135.95799255371094,96.38400268554688 C133.15699768066406,96.38400268554688 130.86599731445312,98.6760025024414 130.86599731445312,101.47699737548828 C130.86599731445312,101.47699737548828 130.86599731445312,123.61100006103516 130.86599731445312,123.61100006103516 C136.46800231933594,123.61100006103516 141.05099487304688,119.02799987792969 141.05099487304688,113.4260025024414 C141.05099487304688,113.4260025024414 141.05099487304688,101.47699737548828 141.05099487304688,101.47699737548828 C141.05099487304688,98.6760025024414 138.75900268554688,96.38400268554688 135.95799255371094,96.38400268554688z"></path></g><g style="display: block;" transform="matrix(2.897777557373047,-0.7764571309089661,0.7764571309089661,2.897777557373047,-95.99700927734375,25.555919647216797)" opacity="1"><g opacity="1" transform="matrix(1,0,0,1,94.50700378417969,61.7859992980957)"><path fill="rgb(254,254,254)" fill-opacity="1" d=" M-1.9170000553131104,8.387999534606934 C-1.9170000553131104,8.387999534606934 1.9170000553131104,8.387999534606934 1.9170000553131104,8.387999534606934 C1.9170000553131104,8.387999534606934 1.9170000553131104,-8.387999534606934 1.9170000553131104,-8.387999534606934 C1.9170000553131104,-8.387999534606934 -1.9170000553131104,-8.387999534606934 -1.9170000553131104,-8.387999534606934 C-1.9170000553131104,-8.387999534606934 -1.9170000553131104,8.387999534606934 -1.9170000553131104,8.387999534606934z"></path><path stroke-linecap="round" stroke-linejoin="round" fill-opacity="0" stroke="rgb(0,0,80)" stroke-opacity="1" stroke-width="2.003" d=" M-1.9170000553131104,8.387999534606934 C-1.9170000553131104,8.387999534606934 1.9170000553131104,8.387999534606934 1.9170000553131104,8.387999534606934 C1.9170000553131104,8.387999534606934 1.9170000553131104,-8.387999534606934 1.9170000553131104,-8.387999534606934 C1.9170000553131104,-8.387999534606934 -1.9170000553131104,-8.387999534606934 -1.9170000553131104,-8.387999534606934 C-1.9170000553131104,-8.387999534606934 -1.9170000553131104,8.387999534606934 -1.9170000553131104,8.387999534606934z"></path></g><g opacity="1" transform="matrix(1,0,0,1,94.50700378417969,52.81100082397461)"><path fill="rgb(254,254,254)" fill-opacity="1" d=" M0,-3.933000087738037 C2.171999931335449,-3.933000087738037 3.933000087738037,-2.171999931335449 3.933000087738037,0 C3.933000087738037,2.171999931335449 2.171999931335449,3.933000087738037 0,3.933000087738037 C-2.171999931335449,3.933000087738037 -3.933000087738037,2.171999931335449 -3.933000087738037,0 C-3.933000087738037,-2.171999931335449 -2.171999931335449,-3.933000087738037 0,-3.933000087738037z"></path><path stroke-linecap="round" stroke-linejoin="round" fill-opacity="0" stroke="rgb(0,0,80)" stroke-opacity="1" stroke-width="2" d=" M0,-3.933000087738037 C2.171999931335449,-3.933000087738037 3.933000087738037,-2.171999931335449 3.933000087738037,0 C3.933000087738037,2.171999931335449 2.171999931335449,3.933000087738037 0,3.933000087738037 C-2.171999931335449,3.933000087738037 -3.933000087738037,2.171999931335449 -3.933000087738037,0 C-3.933000087738037,-2.171999931335449 -2.171999931335449,-3.933000087738037 0,-3.933000087738037z"></path></g></g><g style="display: block;" transform="matrix(3,0,0,3,-41,-53)" opacity="1"><g opacity="1" transform="matrix(1,0,0,1,94.50700378417969,86.72699737548828)"><path fill="rgb(254,254,254)" fill-opacity="1" d=" M-23.92099952697754,20.485000610351562 C-23.92099952697754,20.485000610351562 23.92099952697754,20.485000610351562 23.92099952697754,20.485000610351562 C23.92099952697754,20.485000610351562 23.92099952697754,3.436000108718872 23.92099952697754,3.436000108718872 C23.92099952697754,-9.720000267028809 13.156999588012695,-20.485000610351562 0,-20.485000610351562 C0,-20.485000610351562 0,-20.485000610351562 0,-20.485000610351562 C-13.156999588012695,-20.485000610351562 -23.92099952697754,-9.720000267028809 -23.92099952697754,3.436000108718872 C-23.92099952697754,3.436000108718872 -23.92099952697754,20.485000610351562 -23.92099952697754,20.485000610351562z"></path><path stroke-linecap="round" stroke-linejoin="round" fill-opacity="0" stroke="rgb(0,0,80)" stroke-opacity="1" stroke-width="2" d=" M-23.92099952697754,20.485000610351562 C-23.92099952697754,20.485000610351562 23.92099952697754,20.485000610351562 23.92099952697754,20.485000610351562 C23.92099952697754,20.485000610351562 23.92099952697754,3.436000108718872 23.92099952697754,3.436000108718872 C23.92099952697754,-9.720000267028809 13.156999588012695,-20.485000610351562 0,-20.485000610351562 C0,-20.485000610351562 0,-20.485000610351562 0,-20.485000610351562 C-13.156999588012695,-20.485000610351562 -23.92099952697754,-9.720000267028809 -23.92099952697754,3.436000108718872 C-23.92099952697754,3.436000108718872 -23.92099952697754,20.485000610351562 -23.92099952697754,20.485000610351562z"></path></g></g><g style="display: block;" transform="matrix(3,0,0,3,-41,-53)" opacity="1"><path stroke-linecap="round" stroke-linejoin="round" fill-opacity="0" stroke="rgb(0,0,80)" stroke-opacity="1" stroke-width="2" d=" M117.3270034790039,83.00299835205078 C117.3270034790039,83.00299835205078 88.02799987792969,83.00299835205078 88.02799987792969,83.00299835205078 C86.6520004272461,85.86799621582031 85.86799621582031,89.16300201416016 85.86799621582031,92.66899871826172 C85.86799621582031,96.17500305175781 86.6520004272461,99.47100067138672 88.02799987792969,102.33599853515625 C88.02799987792969,102.33599853515625 118.42900085449219,102.33599853515625 118.42900085449219,102.33599853515625"></path></g><g style="display: block;" transform="matrix(3,0,0,3,-41.500999450683594,-53)" opacity="1"><path stroke-linecap="round" stroke-linejoin="round" fill-opacity="0" stroke="rgb(0,0,80)" stroke-opacity="1" stroke-width="2" d=" M99.73509979248047,95.96900939941406 C99.73509979248047,95.96900939941406 99.73329162597656,96.18693542480469 99.73329162597656,96.18693542480469 M106.6011962890625,95.96900939941406 C106.6011962890625,95.96900939941406 106.5993881225586,96.18693542480469 106.5993881225586,96.18693542480469 M99.73600006103516,96.06900024414062 C99.73600006103516,96.06900024414062 106.60299682617188,96.06900024414062 106.60299682617188,96.06900024414062"></path></g><g style="display: block;" transform="matrix(0.9142800569534302,0,0,0.9142800569534302,241.24899291992188,219.49899291992188)" opacity="1"><path fill="rgb(255,255,255)" fill-opacity="1" d=" M-0.36800000071525574,8.741999626159668 C-5.03000020980835,8.548999786376953 -8.75,4.709000110626221 -8.75,0 C-8.75,-4.831999778747559 -4.831999778747559,-8.75 0,-8.75 C0,-8.75 0,-8.75 0,-8.75 C4.831999778747559,-8.75 8.75,-4.831999778747559 8.75,0 C8.75,4.709000110626221 5.03000020980835,8.548999786376953 0.36800000071525574,8.741999626159668"></path><path stroke-linecap="round" stroke-linejoin="miter" fill-opacity="0" stroke-miterlimit="4" stroke="rgb(0,0,79)" stroke-opacity="1" stroke-width="7" d=" M-0.36800000071525574,8.741999626159668 C-5.03000020980835,8.548999786376953 -8.75,4.709000110626221 -8.75,0 C-8.75,-4.831999778747559 -4.831999778747559,-8.75 0,-8.75 C0,-8.75 0,-8.75 0,-8.75 C4.831999778747559,-8.75 8.75,-4.831999778747559 8.75,0 C8.75,4.709000110626221 5.03000020980835,8.548999786376953 0.36800000071525574,8.741999626159668"></path></g><g style="display: block;" transform="matrix(0.9142800569534302,0,0,0.9142800569534302,295.2489929199219,219.49899291992188)" opacity="1"><path stroke-linecap="round" stroke-linejoin="miter" fill-opacity="0" stroke-miterlimit="4" stroke="rgb(0,0,79)" stroke-opacity="1" stroke-width="7" d=" M-0.36800000071525574,8.741999626159668 C-5.03000020980835,8.548999786376953 -8.75,4.709000110626221 -8.75,0 C-8.75,-4.831999778747559 -4.831999778747559,-8.75 0,-8.75 C0,-8.75 0,-8.75 0,-8.75 C4.831999778747559,-8.75 8.75,-4.831999778747559 8.75,0 C8.75,4.709000110626221 5.03000020980835,8.548999786376953 0.36800000071525574,8.741999626159668"></path></g><g style="display: block;" transform="matrix(1,0,0,1,286,200)" opacity="1"><path fill="rgb(255,255,255)" fill-opacity="1" d="M0 0"></path><path stroke-linecap="butt" stroke-linejoin="miter" fill-opacity="0" stroke-miterlimit="4" stroke="rgb(0,0,79)" stroke-opacity="1" stroke-width="7" d="M0 0"></path></g><g style="display: block;" transform="matrix(3,0,0,3,-41,-53)" opacity="1"><path fill="rgb(254,254,254)" fill-opacity="1" d=" M135.927001953125,100.6989974975586 C135.927001953125,100.6989974975586 135.927001953125,100.6989974975586 135.927001953125,100.6989974975586 C133.12600708007812,100.6989974975586 130.83399963378906,102.99099731445312 130.83399963378906,105.79199981689453 C130.83399963378906,105.79199981689453 130.86599731445312,117.13300323486328 130.86599731445312,117.13300323486328 C130.86599731445312,117.13300323486328 130.86599731445312,123.61100006103516 130.86599731445312,123.61100006103516 C136.46800231933594,123.61100006103516 141.05099487304688,119.02799987792969 141.05099487304688,113.4260025024414 C141.05099487304688,113.4260025024414 141.0189971923828,105.79199981689453 141.0189971923828,105.79199981689453 C141.0189971923828,102.99099731445312 138.72799682617188,100.6989974975586 135.927001953125,100.6989974975586z"></path><path stroke-linecap="round" stroke-linejoin="round" fill-opacity="0" stroke="rgb(0,0,80)" stroke-opacity="1" stroke-width="1.998" d=" M135.927001953125,100.6989974975586 C135.927001953125,100.6989974975586 135.927001953125,100.6989974975586 135.927001953125,100.6989974975586 C133.12600708007812,100.6989974975586 130.83399963378906,102.99099731445312 130.83399963378906,105.79199981689453 C130.83399963378906,105.79199981689453 130.86599731445312,117.13300323486328 130.86599731445312,117.13300323486328 C130.86599731445312,117.13300323486328 130.86599731445312,123.61100006103516 130.86599731445312,123.61100006103516 C136.46800231933594,123.61100006103516 141.05099487304688,119.02799987792969 141.05099487304688,113.4260025024414 C141.05099487304688,113.4260025024414 141.0189971923828,105.79199981689453 141.0189971923828,105.79199981689453 C141.0189971923828,102.99099731445312 138.72799682617188,100.6989974975586 135.927001953125,100.6989974975586z"></path></g><g style="display: block;" transform="matrix(3,0,0,3,-35,-53)" opacity="1"><path fill="rgb(254,254,254)" fill-opacity="1" d=" M58.14899826049805,111.98400115966797 C58.14899826049805,111.98400115966797 70.322998046875,112.00900268554688 70.322998046875,112.00900268554688 C70.322998046875,112.00900268554688 70.322998046875,127.88300323486328 70.322998046875,127.88300323486328 C70.322998046875,127.88300323486328 58.14899826049805,127.85800170898438 58.14899826049805,127.85800170898438 C58.14899826049805,127.85800170898438 58.14899826049805,111.98400115966797 58.14899826049805,111.98400115966797z"></path><path stroke-linecap="round" stroke-linejoin="round" fill-opacity="0" stroke="rgb(0,0,80)" stroke-opacity="1" stroke-width="1.999" d=" M58.14899826049805,111.98400115966797 C58.14899826049805,111.98400115966797 70.322998046875,112.00900268554688 70.322998046875,112.00900268554688 C70.322998046875,112.00900268554688 70.322998046875,127.88300323486328 70.322998046875,127.88300323486328 C70.322998046875,127.88300323486328 58.14899826049805,127.85800170898438 58.14899826049805,127.85800170898438 C58.14899826049805,127.85800170898438 58.14899826049805,111.98400115966797 58.14899826049805,111.98400115966797z"></path></g><g style="display: block;" transform="matrix(3,0,0,3,-41,-39.5)" opacity="1"><g opacity="1" transform="matrix(1,0,0,1,93.93900299072266,151.64599609375)"><path fill="rgb(254,254,254)" fill-opacity="1" d=" M-8.166999816894531,-11.678999900817871 C-8.166999816894531,-11.678999900817871 8.126999855041504,-11.678999900817871 8.126999855041504,-11.678999900817871 C8.126999855041504,-11.678999900817871 8.147000312805176,4.678999900817871 8.147000312805176,4.678999900817871 C8.147000312805176,4.678999900817871 -8.147000312805176,4.678999900817871 -8.147000312805176,4.678999900817871 C-8.147000312805176,4.678999900817871 -8.166999816894531,-11.678999900817871 -8.166999816894531,-11.678999900817871z"></path><path stroke-linecap="round" stroke-linejoin="round" fill-opacity="0" stroke="rgb(0,0,80)" stroke-opacity="1" stroke-width="1.993" d=" M-8.166999816894531,-11.678999900817871 C-8.166999816894531,-11.678999900817871 8.126999855041504,-11.678999900817871 8.126999855041504,-11.678999900817871 C8.126999855041504,-11.678999900817871 8.147000312805176,4.678999900817871 8.147000312805176,4.678999900817871 C8.147000312805176,4.678999900817871 -8.147000312805176,4.678999900817871 -8.147000312805176,4.678999900817871 C-8.147000312805176,4.678999900817871 -8.166999816894531,-11.678999900817871 -8.166999816894531,-11.678999900817871z"></path></g><g opacity="1" transform="matrix(1,0,0,1,72.19599914550781,168.83200073242188)"><path fill="rgb(254,254,254)" fill-opacity="1" d=" M-3.4619998931884766,-5.090000152587891 C-3.4619998931884766,-5.090000152587891 3.4619998931884766,-5.090000152587891 3.4619998931884766,-5.090000152587891 C3.4619998931884766,-5.090000152587891 3.4619998931884766,5.090000152587891 3.4619998931884766,5.090000152587891 C3.4619998931884766,5.090000152587891 -3.4619998931884766,5.090000152587891 -3.4619998931884766,5.090000152587891 C-3.4619998931884766,5.090000152587891 -3.4619998931884766,-5.090000152587891 -3.4619998931884766,-5.090000152587891z"></path><path stroke-linecap="round" stroke-linejoin="round" fill-opacity="0" stroke="rgb(0,0,80)" stroke-opacity="1" stroke-width="2.005" d=" M-3.4619998931884766,-5.090000152587891 C-3.4619998931884766,-5.090000152587891 3.4619998931884766,-5.090000152587891 3.4619998931884766,-5.090000152587891 C3.4619998931884766,-5.090000152587891 3.4619998931884766,5.090000152587891 3.4619998931884766,5.090000152587891 C3.4619998931884766,5.090000152587891 -3.4619998931884766,5.090000152587891 -3.4619998931884766,5.090000152587891 C-3.4619998931884766,5.090000152587891 -3.4619998931884766,-5.090000152587891 -3.4619998931884766,-5.090000152587891z"></path></g><g opacity="1" transform="matrix(1,0,0,1,93.93900299072266,160.03399658203125)"><path fill="rgb(254,254,254)" fill-opacity="1" d=" M-21.743000030517578,3.7090001106262207 C-21.743000030517578,3.7090001106262207 21.743000030517578,3.7090001106262207 21.743000030517578,3.7090001106262207 C21.743000030517578,-0.3709999918937683 18.4060001373291,-3.7090001106262207 14.326000213623047,-3.7090001106262207 C14.326000213623047,-3.7090001106262207 -14.326000213623047,-3.7090001106262207 -14.326000213623047,-3.7090001106262207 C-18.4060001373291,-3.7090001106262207 -21.743000030517578,-0.3709999918937683 -21.743000030517578,3.7090001106262207 C-21.743000030517578,3.7090001106262207 -21.743000030517578,3.7090001106262207 -21.743000030517578,3.7090001106262207z"></path><path stroke-linecap="round" stroke-linejoin="round" fill-opacity="0" stroke="rgb(0,0,80)" stroke-opacity="1" stroke-width="2.001" d=" M-21.743000030517578,3.7090001106262207 C-21.743000030517578,3.7090001106262207 21.743000030517578,3.7090001106262207 21.743000030517578,3.7090001106262207 C21.743000030517578,-0.3709999918937683 18.4060001373291,-3.7090001106262207 14.326000213623047,-3.7090001106262207 C14.326000213623047,-3.7090001106262207 -14.326000213623047,-3.7090001106262207 -14.326000213623047,-3.7090001106262207 C-18.4060001373291,-3.7090001106262207 -21.743000030517578,-0.3709999918937683 -21.743000030517578,3.7090001106262207 C-21.743000030517578,3.7090001106262207 -21.743000030517578,3.7090001106262207 -21.743000030517578,3.7090001106262207z"></path></g><g opacity="1" transform="matrix(1,0,0,1,115.68299865722656,168.83200073242188)"><path fill="rgb(254,254,254)" fill-opacity="1" d=" M-3.4619998931884766,-5.090000152587891 C-3.4619998931884766,-5.090000152587891 3.4619998931884766,-5.090000152587891 3.4619998931884766,-5.090000152587891 C3.4619998931884766,-5.090000152587891 3.4619998931884766,5.090000152587891 3.4619998931884766,5.090000152587891 C3.4619998931884766,5.090000152587891 -3.4619998931884766,5.090000152587891 -3.4619998931884766,5.090000152587891 C-3.4619998931884766,5.090000152587891 -3.4619998931884766,-5.090000152587891 -3.4619998931884766,-5.090000152587891z"></path><path stroke-linecap="round" stroke-linejoin="round" fill-opacity="0" stroke="rgb(0,0,80)" stroke-opacity="1" stroke-width="2.005" d=" M-3.4619998931884766,-5.090000152587891 C-3.4619998931884766,-5.090000152587891 3.4619998931884766,-5.090000152587891 3.4619998931884766,-5.090000152587891 C3.4619998931884766,-5.090000152587891 3.4619998931884766,5.090000152587891 3.4619998931884766,5.090000152587891 C3.4619998931884766,5.090000152587891 -3.4619998931884766,5.090000152587891 -3.4619998931884766,5.090000152587891 C-3.4619998931884766,5.090000152587891 -3.4619998931884766,-5.090000152587891 -3.4619998931884766,-5.090000152587891z"></path></g><g opacity="1" transform="matrix(1,0,0,1,93.93900299072266,168.83200073242188)"><path fill="rgb(254,254,254)" fill-opacity="1" d=" M-3.4619998931884766,-5.090000152587891 C-3.4619998931884766,-5.090000152587891 3.4619998931884766,-5.090000152587891 3.4619998931884766,-5.090000152587891 C3.4619998931884766,-5.090000152587891 3.4619998931884766,5.090000152587891 3.4619998931884766,5.090000152587891 C3.4619998931884766,5.090000152587891 -3.4619998931884766,5.090000152587891 -3.4619998931884766,5.090000152587891 C-3.4619998931884766,5.090000152587891 -3.4619998931884766,-5.090000152587891 -3.4619998931884766,-5.090000152587891z"></path><path stroke-linecap="round" stroke-linejoin="round" fill-opacity="0" stroke="rgb(0,0,80)" stroke-opacity="1" stroke-width="2.005" d=" M-3.4619998931884766,-5.090000152587891 C-3.4619998931884766,-5.090000152587891 3.4619998931884766,-5.090000152587891 3.4619998931884766,-5.090000152587891 C3.4619998931884766,-5.090000152587891 3.4619998931884766,5.090000152587891 3.4619998931884766,5.090000152587891 C3.4619998931884766,5.090000152587891 -3.4619998931884766,5.090000152587891 -3.4619998931884766,5.090000152587891 C-3.4619998931884766,5.090000152587891 -3.4619998931884766,-5.090000152587891 -3.4619998931884766,-5.090000152587891z"></path></g></g><g style="display: block;" transform="matrix(3,0,0,3,-41,-53)" opacity="1"><path fill="rgb(254,254,254)" fill-opacity="1" d=" M66.822998046875,107.21199798583984 C66.822998046875,107.21199798583984 122.19200134277344,107.21199798583984 122.19200134277344,107.21199798583984 C122.19200134277344,107.21199798583984 122.19200134277344,146.9669952392578 122.19200134277344,146.9669952392578 C122.19200134277344,146.9669952392578 66.822998046875,146.9669952392578 66.822998046875,146.9669952392578 C66.822998046875,146.9669952392578 66.822998046875,107.21199798583984 66.822998046875,107.21199798583984z"></path><path stroke-linecap="round" stroke-linejoin="round" fill-opacity="0" stroke="rgb(0,0,80)" stroke-opacity="1" stroke-width="2.003" d=" M66.822998046875,107.21199798583984 C66.822998046875,107.21199798583984 122.19200134277344,107.21199798583984 122.19200134277344,107.21199798583984 C122.19200134277344,107.21199798583984 122.19200134277344,146.9669952392578 122.19200134277344,146.9669952392578 C122.19200134277344,146.9669952392578 66.822998046875,146.9669952392578 66.822998046875,146.9669952392578 C66.822998046875,146.9669952392578 66.822998046875,107.21199798583984 66.822998046875,107.21199798583984z"></path></g><g style="display: block;" transform="matrix(3,0,0,3,-41,-53)" opacity="1"><path fill="rgb(254,254,254)" fill-opacity="1" d=" M116.35900115966797,111.96800231933594 C116.35900115966797,111.96800231933594 130.86599731445312,111.98400115966797 130.86599731445312,111.98400115966797 C130.86599731445312,111.98400115966797 130.86599731445312,127.85800170898438 130.86599731445312,127.85800170898438 C130.86599731445312,127.85800170898438 116.35900115966797,127.84200286865234 116.35900115966797,127.84200286865234 C116.35900115966797,127.84200286865234 116.35900115966797,111.96800231933594 116.35900115966797,111.96800231933594z"></path><path stroke-linecap="round" stroke-linejoin="round" fill-opacity="0" stroke="rgb(0,0,80)" stroke-opacity="1" stroke-width="1.999" d=" M116.35900115966797,111.96800231933594 C116.35900115966797,111.96800231933594 130.86599731445312,111.98400115966797 130.86599731445312,111.98400115966797 C130.86599731445312,111.98400115966797 130.86599731445312,127.85800170898438 130.86599731445312,127.85800170898438 C130.86599731445312,127.85800170898438 116.35900115966797,127.84200286865234 116.35900115966797,127.84200286865234 C116.35900115966797,127.84200286865234 116.35900115966797,111.96800231933594 116.35900115966797,111.96800231933594z"></path></g><g style="display: block;" transform="matrix(3,0,0,3,-86.5,-40.125)" opacity="1"><path stroke-linecap="round" stroke-linejoin="round" fill-opacity="0" stroke="rgb(0,0,80)" stroke-opacity="1" stroke-width="2" d=" M101.31300354003906,147.4499969482422 C101.31300354003906,147.4499969482422 110.10700225830078,142.65499877929688 110.10700225830078,142.65499877929688"></path></g><g style="display: block;" transform="matrix(3,0,0,3,-86.5,-40.125)" opacity="1"><path stroke-linecap="round" stroke-linejoin="round" fill-opacity="0" stroke="rgb(0,0,80)" stroke-opacity="1" stroke-width="2" d=" M100.89700317382812,156.14999389648438 C100.89700317382812,156.14999389648438 117.12799835205078,147 117.12799835205078,147"></path></g><g style="display: block;" transform="matrix(3,0,0,3,-85.0009994506836,-53)" opacity="1"><g opacity="1" transform="matrix(1,0,0,1,86.58200073242188,127.08899688720703)"><path fill="rgb(254,254,254)" fill-opacity="1" d=" M-4.89900016784668,-11.916999816894531 C-4.89900016784668,-11.916999816894531 7.35699987411499,-11.91100025177002 7.35699987411499,-11.91100025177002 C9.604000091552734,-11.91100025177002 11.442000389099121,-10.072999954223633 11.442000389099121,-7.827000141143799 C11.442000389099121,-7.827000141143799 11.442000389099121,7.827000141143799 11.442000389099121,7.827000141143799 C11.442000389099121,10.074000358581543 9.604000091552734,11.91100025177002 7.35699987411499,11.91100025177002 C7.35699987411499,11.91100025177002 -4.89900016784668,11.906000137329102 -4.89900016784668,11.906000137329102 C-6.821000099182129,11.91100025177002 -6.861999988555908,10.062000274658203 -6.861999988555908,7.815000057220459 C-6.861999988555908,7.815000057220459 -6.861999988555908,-7.839000225067139 -6.861999988555908,-7.839000225067139 C-6.861999988555908,-10.085000038146973 -6.90500020980835,-11.819000244140625 -4.89900016784668,-11.916999816894531z"></path><path stroke-linecap="round" stroke-linejoin="round" fill-opacity="0" stroke="rgb(0,0,80)" stroke-opacity="1" stroke-width="2" d=" M-4.89900016784668,-11.916999816894531 C-4.89900016784668,-11.916999816894531 7.35699987411499,-11.91100025177002 7.35699987411499,-11.91100025177002 C9.604000091552734,-11.91100025177002 11.442000389099121,-10.072999954223633 11.442000389099121,-7.827000141143799 C11.442000389099121,-7.827000141143799 11.442000389099121,7.827000141143799 11.442000389099121,7.827000141143799 C11.442000389099121,10.074000358581543 9.604000091552734,11.91100025177002 7.35699987411499,11.91100025177002 C7.35699987411499,11.91100025177002 -4.89900016784668,11.906000137329102 -4.89900016784668,11.906000137329102 C-6.821000099182129,11.91100025177002 -6.861999988555908,10.062000274658203 -6.861999988555908,7.815000057220459 C-6.861999988555908,7.815000057220459 -6.861999988555908,-7.839000225067139 -6.861999988555908,-7.839000225067139 C-6.861999988555908,-10.085000038146973 -6.90500020980835,-11.819000244140625 -4.89900016784668,-11.916999816894531z"></path></g><g opacity="1" transform="matrix(1,0,0,1,92.5270004272461,127.08899688720703)"><path stroke-linecap="round" stroke-linejoin="round" fill-opacity="0" stroke="rgb(0,0,80)" stroke-opacity="1" stroke-width="2" d=" M-0.9909999966621399,-1.9809999465942383 C-1.9019999504089355,-1.9229999780654907 -2.3010001182556152,-1.093999981880188 -2.3010001182556152,0 C-2.3010001182556152,1.093999981880188 -1.8179999589920044,1.909999966621399 -0.9909999966621399,1.9809999465942383"></path></g></g></g></svg>