<?xml version="1.0" encoding="UTF-8"?><svg id="Ebene_2" xmlns="http://www.w3.org/2000/svg" viewBox="0 0 515.5 685.66"><defs><style>.cls-1{fill:#000050;}.cls-2{fill:#fff;}</style></defs><g id="Ebene_1-2"><g><path class="cls-1" d="M0,685.66c1.34-4.62,2.59-9.28,4.05-13.87,6.72-21.1,13.52-42.18,20.25-63.28,2.48-7.77,4.82-15.58,7.25-23.36,2.1-6.71,7.65-9.87,13.47-12.43,16.77-7.37,33.62-14.55,50.48-21.72,2.98-1.27,5.18-3.21,7.5-5.47,5.22-5.1,11.11-9.51,16.66-14.28,12.1-10.41,24.41-20.6,36.13-31.43,7.31-6.75,13.63-14.55,20.51-21.77,3.67-3.86,5.21-8.5,5.44-13.61,1.09-24.28,2.09-48.57,3.11-72.85,.31-7.46-2.39-14.28-4.38-22.31-3.85,7.12-3.35,14.91-7.7,20.65l-1.49-.17c-.18-1.99-.69-4.02-.48-5.97,1.34-12.41,2.54-24.85,4.35-37.19,2.43-16.63,5.36-33.19,8.08-49.78,.66-4.05,1.31-8.11,2.09-12.91-2.1,.38-3.31,.62-4.53,.81-6.73,1.01-13.45,2.69-20.2,2.87-11.3,.29-22.65-.02-33.94-.74-9.19-.59-18.48-2.25-25.38-9.03-4.58-4.5-8.7-9.66-12.14-15.1-9.17-14.51-15.06-30.41-17.89-47.35-1.43-8.54-.53-16.82,3.43-24.8,6.96-14.02,13.11-28.45,20.39-42.3,7.36-14,19.06-22.8,35.29-23.52,9.61-.43,18.74,2.45,26.86,7.92,.82,.55,1.61,1.16,2.46,1.67,.25,.15,.65,.08,1.7,.17,.2-1.67,.49-3.36,.6-5.06,.67-10.63,1.14-21.27,1.98-31.88,1.01-12.71,4.58-24.87,8.72-36.85,2.33-6.74,7.79-11.02,12.79-15.7,11.9-11.13,25.99-18.57,41.06-24.18,6.68-2.49,13.76-3.94,20.68-5.78,11.44-3.05,22.96-5.66,34.89-5.76,.8,0,1.61-.3,2.33-.44,2.48-9.91,22.39-12.56,27.87-2.51,1.61,.09,3.42,.24,5.23,.3,11.81,.4,23.63,.69,35.44,1.22,2.79,.12,5.54,1.04,8.33,1.49,10.01,1.61,20.05,3.03,30.03,4.79,16.05,2.83,26.19,13.08,32.9,27.19,8.36,17.56,12.12,36.24,12.78,55.59,.05,1.33,.09,2.66,.22,3.99,.05,.46,.35,.9,.68,1.68,1.2,.06,2.49,.26,3.76,.16,11.45-.93,22.88-1.99,34.33-2.85,10.54-.79,20.93,.42,31.2,2.76,1.61,.36,3.15,1.08,4.65,1.79,2.04,.96,3.74,2.29,3.66,4.86-.08,2.55-1.25,4.53-3.56,5.6-4.69,2.16-9.3,4.58-14.18,6.22-16.09,5.42-32.27,10.56-48.42,15.78-5.21,1.68-10.44,3.29-15.97,5.02-1.38,4.73-2.72,9.31-4.06,13.89,.26,.28,.52,.56,.78,.84,1.47-1.09,2.97-2.13,4.4-3.27,9.78-7.74,21.1-11.58,33.37-11.45,10.72,.11,19.46,4.29,24.68,14.78,5.23,10.51,7.21,21.37,6.16,32.9-2.14,23.52-13.23,42.17-31.03,57.29-6.72,5.7-13.07,11.86-19.34,18.05-6.56,6.47-13.34,12.56-21.64,16.74-1.45,.73-2.74,1.77-4.2,2.74,.35,8.04,.55,15.85,1.06,23.63,.88,13.23,6.1,25.52,8.54,38.43,2.2,11.62,1.82,22.99-3.62,33.62-2,3.9-5.13,7.39-8.32,10.47-5.86,5.67-12.1,10.95-18.26,16.31-14.4,12.52-31.01,20.36-49.76,24.09-13.8,2.74-27.66,4.05-41.69,4.03-2.11,0-4.22,.26-7.02,.44-.38,14.95-1.07,29.49-.31,44.17,1.41,1,2.54,1.97,3.82,2.68,8.66,4.82,16,11.13,22.94,18.24,7.19,7.36,15.29,13.86,23.29,20.38,9.54,7.78,19.4,15.19,29.1,22.77,.78,.61,1.72,1.23,2.14,2.07,3.69,7.34,10.71,10.94,17.33,14.49,8.69,4.66,13.35,11.35,15.17,20.9,4.5,23.56,9.5,47.02,14.11,70.55,2.21,11.27,4,22.62,5.98,33.94h-4c-1.53-9.85-2.85-19.75-4.64-29.55-2.19-11.93-4.74-23.78-7.21-35.66-3.05-14.64-6.13-29.28-9.33-43.89-.46-2.1-1.7-4.02-2.62-6.14-1.35,.94-2.06,1.43-2.95,2.06-.33-1.92-.57-3.36-.87-5.11-7.09-4.7-14.23-9.44-21.72-14.41-4.69,8.34-9.08,16.14-13.61,24.21,2.3,2.11,4.03,3.87,5.94,5.42,4.26,3.45,8.75,6.64,12.85,10.26,1.47,1.3,2.91,3.52,2.97,5.36,.22,7.8,.49,15.69-.35,23.42-1.18,10.86-3.36,21.62-5.05,32.43-.22,1.4-.03,2.86-.03,4.53,6.43,.75,8.2-4.39,11.42-6.83-.18-19.47,3.46-52.1,6.83-58.21,.45,16.5-3.08,31.86-2.94,47.86,.3,.58,.83,1.59,1.45,2.78-2.31,2.1-1.41,3.95-.35,6.53,2.16,5.28,3.95,10.88,4.75,16.51,.85,6.05,.38,12.28,.48,18.43h-3c-.13-6.89,.09-13.81-1.08-21.63-8.68,2.86-15.79,7.31-23.23,9.96-1.72,4.29-3.2,7.99-4.68,11.68h-5c.44-1.43,.71-2.93,1.34-4.27,7.04-15.01,11.71-30.73,14.46-47.05,2.09-12.35,3.27-24.73,1.69-38.07-11.88-9.32-24.08-18.9-36.91-28.97-.35,1.97-.65,2.88-.64,3.79,.02,4.15,.34,8.31,.17,12.45-.42,10.31-.47,20.67-1.74,30.88-1.78,14.34-4.19,28.62-6.98,42.8-1.89,9.59-4.9,18.97-7.4,28.44h-3c.69-3.87,1.46-7.72,2.04-11.6,.75-5.01,3.65-9.68,2.43-15.01-.03-.14,.09-.31,.18-.59,.62-.25,1.32-.54,1.83-.74,2.42-13.13,6.61-25.89,5.67-40.19-.69,1.17-1,1.55-1.14,1.98-5.02,14.8-11.08,29.18-17.98,43.19-3.81,7.75-8.01,15.31-12.03,22.96h-3c13.3-23.79,25.2-48.19,33.06-74.89-2.56-1.52-4.74-2.81-7.43-4.41-16.37,24.5-23.92,51.54-29.62,79.29h-2c.69-6.11,1.37-12.22,2.12-18.91-2.93-3.33-5.76-7.05-9.09-10.25-9.84-9.47-19.73-18.92-29.92-28.01-4.36-3.89-6.59-8.1-6.02-13.94,.6-6.2-2.27-10.99-6.94-14.7-2.06-1.63-4.55-2.75-6.92-3.95-4.46-2.25-8.86-1.54-12.83,1.06-6.97,4.56-11.12,11.22-13.91,19.71,2.27,2.65,4.32,5.72,7,8.07,15.8,13.83,31.7,27.54,47.65,41.17,7.84,6.7,15.89,13.17,23.85,19.75h-5c-7.06-6.25-14.09-12.54-21.2-18.73-9.26-8.07-18.56-16.08-27.89-24.06-2.81-2.4-5.78-4.6-8.68-6.89,4.35,10.83,11.08,19.84,18.11,28.71,.16,1.15-.06,2.78,.61,3.85,2.61,4.22,5.26,8.47,8.41,12.29,1.33,1.61,1.85,2.95,1.64,4.83h-3c-27.3-41.28-53.67-83.13-78.54-126.95-13.53,13.86-26.57,27.22-39.93,40.9,2.56,3.37,4.67,6.32,6.95,9.14,8.05,9.94,16.15,19.83,24.23,29.74,8.5,10.42,17.01,20.83,25.5,31.26,4.29,5.28,8.54,10.6,12.8,15.91h-6c-5.71-9.85-12.99-18.48-20.62-26.86-4.34-4.77-8.75-9.5-12.8-14.51-5.32-6.58-10.21-13.5-15.49-20.11-3.08-3.85-6.56-7.39-9.87-11.06-1.25-1.39-2.5-2.78-3.4-3.79l-4.5-10.06c2.82-3.18,5.66-6.38,8.98-10.12-2.64-3.6-4.63-7.37-7.57-10.11-9.99-9.32-20.94-17.46-32.47-24.79-1.78-1.13-3.82-1.85-5.32-2.56-15.16,5.03-52.47,21.81-55.12,24.7,6.03,3.1,12.25,5.92,18.08,9.4,5.69,3.4,11.19,7.21,16.39,11.32,9.36,7.38,12.09,10.6,13.58,14.83-.79-.6-1.34-.93-1.79-1.37-12.21-11.77-25.99-21.25-41.31-28.49-4.42-2.09-9.05-3.42-15.19-1.7-.96,1.81-2.71,4.24-3.58,6.95-2.66,8.2-4.8,16.56-7.46,24.76-6.6,20.4-13.4,40.73-20.04,61.11-1.34,4.1-2.34,8.3-3.5,12.45H0ZM398.1,170.73c-.81-.57-1.64-1.11-2.41-1.72-3.99-3.13-8.07-3.65-12.34-.52-.93,.68-2.17,.96-3.03,1.7-3.37,2.89-7.79,5.38-8.22,10.17-.57,6.37,.68,12.64,4.72,17.92,1.77,2.31,3.92,4.31,7.04,4.44,.42-2.85,.78-5.34,1.3-8.84,3.69,1.32,6.37,2.28,9.63,3.44,.29-2.31,.57-4.51,.85-6.67-2.1-1.82-4.85-2.91-4.53-6.25q4.84,2.34,7.68,1.03c-2.36-1.78-4.46-3.36-6.91-5.21,.07-.43,.21-1.32,.39-2.46,.72,.88,1.19,1.46,1.49,1.83,3.12-.59,5.84-1.11,9.01-1.71-1.61-2.43-3.22-4.87-4.82-7.3,3.39,2.04,6.82,4.05,7.84,8.33-.77,1.31-1.44,2.44-2.1,3.57h.65v11.57l1.09,.15c.92-4.05,1.85-8.1,2.77-12.15l1.09-.02c.38,2.44,.77,4.88,1.15,7.33,2.95-9.87,1.78-19.19-4.53-27.27-2.46-3.15-6.02-5.84-9.62-7.63-6.16-3.06-12.37-.97-15.56,4.34,11.3-5.24,24.12,1.79,25.98,14.87-1.01-1.96-2.01-3.92-3.03-5.89q-5.06-3.48-8.79-1.93c1.09,1.66,2.15,3.28,3.22,4.91Zm-39.9,10.23c-.76,.48-1.52,.97-2.88,1.83,1.22-5.18,2.46-9.64,3.31-14.17,1.21-6.43,.2-12.6-3.13-18.29-1.02-1.73-2.24-3.4-4.98-1.7,.54,1.25,1.04,2.41,1.55,3.57l-.78,.41c-1.07-1.48-2.14-2.96-2.8-3.87-9.69-.61-33.43,2.36-36.69,4.58,12.37,7.74,18.91,18.84,18,33.38-.92,14.62-8.87,24.83-22.61,30.69,.17,.29,.34,.59,.5,.88,1.48,.48,2.95,.96,4.35,1.42,12.48-13.54,27.33-18.84,45.32-14.53-.51-4.66-1.39-8.63-1.25-12.57,.14-3.94,1.28-7.84,1.99-11.76,1.63-2.88,3.34-5.73,4.88-8.66,1.55-2.94,2.6-6.19,4.46-8.9,9.26-13.49,25.23-16.47,37.04-5.81,1.44,1.3,3.29,2.25,5.1,3,4.2,1.75,7.38,4.43,9.19,8.67,.42,.99,1.12,1.86,2.19,3.58,1.61-6.69,.74-12.26-.79-17.9-1.71-6.3-5.54-10.26-11.99-11.13-5.08-.68-10.29-1.45-15.34-.99-9.6,.87-19.14,2.51-28.68,4.01-1.52,.24-2.91,1.39-4.76,2.33-.23-.14-1.17-.72-2.27-1.4-.16,.72-.26,.89-.22,1.02,.15,.47,.28,.96,.53,1.38,3.75,6.34,4.69,13.05,2.94,20.21-.86,3.53-1.45,7.13-2.17,10.69Zm.51,51.37l-.61-.19c-.72-3.99-1.44-7.98-2.21-12.28-12.28,.75-23.69,1.98-35.04,3.82-.1,.42-.21,.84-.31,1.26,2.88,1.55,5.75,3.1,8.63,4.64-.22,.44-.44,.89-.67,1.33-2.72-1.35-5.51-2.58-8.15-4.08-9.98-5.7-20.54-9.67-32.13-9.88-12.68-.23-22.26,11.85-19.71,24.37,.98,4.82,3.64,7.59,8.71,8.28,6.27,.85,12.58,1.37,18.88,1.95,5.14,.48,10.3,.77,15.43,1.28,1.68,.16,3.32,.72,4.97,1.1l.16,1.37c-5.44,3.95-11.29,7.23-17.72,9.43-5.66,1.94-11.17,1.2-16.5-1.88-7.08,3.22-14.04,6.39-21.01,9.54-6.47,2.93-11.98,7.17-16.89,12.25-11.62,12.02-21.63,25.32-30.95,39.15-5.64,8.37-6.31,17.37-2.45,26.66,1.15,2.76,2.63,5.38,3.95,8.06,1.62,3.28,3.42,6.49,4.82,9.86,3.51,8.46,6.71,17.05,10.27,25.48,3.38,8.01,8.47,14.66,16.26,18.98,4.37,2.42,8.67,4.98,12.97,7.5,10.11,5.93,21.17,8.83,32.69,10.11,18.69,2.06,37.23,.7,55.7-2.61,13.91-2.49,27.18-6.42,39-14.53,11.57-7.94,22.28-16.86,32.47-26.51,5.24-4.97,8.01-10.94,9.57-17.69,1.48-6.41,1.58-12.88,.34-19.35-5.04-26.37-13.59-51.44-26.93-74.87-3.91-6.87-7.94-12.94-16.17-14.86-1.27-.29-2.45-1.05-3.59-1.74-.85-.52-1.55-1.27-2.32-1.92,.13-.35,.26-.7,.39-1.05,3.25,.35,6.5,.7,9.74,1.06,7.4,.81,14.66,.44,21.47-2.95,7.41-3.69,9.78-11.97,5.48-19.07-2.88-4.74-7.08-7.87-12.31-9.67-10.1-3.48-20.62-3.4-31.09-3.79-2.71-.1-5.43,.1-8.67,.18,2.14,11,.94,20.93-2.87,30.6-3.54,8.96-4.14,18.05-1.2,27.36,4.35,13.81,6.47,27.88,4.2,42.37-.14,.88,.3,1.84,.56,3.23,3.86-.75,7.45-1.44,11.9-2.3-8.59,6.99-24.79,6.09-31.02-1.52,3.96,1.54,7.41,2.88,10.83,4.22,2.3-2.74,4.19-4.99,6.07-7.23,1.73-12.84-.76-31.55-6.71-43.45-2.98-5.96-1.68-11.16,.11-16.79,2.06-6.48,4.48-12.95,5.48-19.61,.72-4.77-.54-9.87-1.15-14.8-.14-1.12-1.25-2.11-1.92-3.16-.26,.18-.52,.35-.78,.53v11.79Zm-28.44,328.93v-13.63c-1.37-.6-2.37-1.28-3.46-1.47-8.03-1.44-16.05-2.96-24.3-2.3-2.64,.21-5.33,0-7.97-.29-.92-.1-1.74-1.01-2.61-1.54l.13-1.24c1.99-.37,3.98-1,5.98-1.06,6.49-.19,13,.01,19.48-.31,3.04-.15,6.03-1.15,8.55-1.66,1.25-3.56,2.17-6.19,3.13-8.94-2.2-9.08-8.66-15.95-13.08-23.92,8.41,8.02,14.52,17.37,16.09,29.06,.88,6.58,1.25,13.24,1.66,19.88,.85,13.83-1.49,13.43,6.66,24.28,4.74,6.32,4.22,13.43,.38,20.27-1.04,1.85-2.03,3.73-3.27,6.03,2.01,1.28,3.69,2.34,5.73,3.64,.79-2.31,1.45-3.83,1.83-5.42,6.55-27.68,2.63-54.32-8.75-79.95-5.37-12.09-13.75-22.02-25.58-28.55-1.94-1.07-4.12-1.73-5.95-2.49-2.26,2.31-1.57,4.17-.8,6.07,4.42,11,9.42,21.63,18.08,30.09,1.05,1.02,1.76,2.4,2.63,3.61-.38,.36-.76,.71-1.15,1.07-1.21-.89-2.63-1.59-3.59-2.69-13.71-15.61-21.96-33.52-22.81-53.98-1.73-.94-3.19-1.72-4.63-2.54-2.7-1.53-5.15-4.08-8.65-2.74-2.87,1.1-5.25,.22-7.52-1.32-8.39-5.67-17.53-10.28-24.56-17.85-2.43-2.62-5.23-4.88-8.29-7.7,.35,3.3,.64,6.06,.93,8.82-.41,.17-.83,.34-1.24,.52-3.58-3.55-8.2-6.54-10.5-10.79-3.36-6.23-9.56-8.94-14.13-14.69-1.43,5.75,.57,11.18-2.08,16.23-3.2-4.58-5.46-9.49-8.35-14.01-2.95-4.61-3.16-10.66-7.58-15.31-.62,1.65-.83,2.44-1.2,3.16-.42,.81-.97,1.55-1.92,3.01-4.18-6.19-4.98-12.98-7.6-19.08-.43,.99-.56,1.92-.59,2.85-.44,15.64-.79,31.29-1.33,46.93-.18,5.32-.44,10.68-1.28,15.92-1.8,11.3-3.75,22.59-6.13,33.78-1.92,9.01-.08,17.24,4.12,25.01,3.39,6.27,7.99,10.1,16.24,9.89,12.25-.3,24.54,1.07,36.8,1.8,1.69,.1,3.65,.19,4.25,3.09-1.8,0-3.25-.04-4.69,0-9.81,.29-19.62,.54-29.43,.95-1.42,.06-2.81,.91-4.21,1.39-.05,.44-.1,.87-.14,1.31,9.79,7.32,19.57,14.63,29.24,21.86,9.35-4.73,18.16-9.47,26.91-.87,6.15-2.74,11.94-5.32,17.81-7.93,.63,.9,1.47,2.11,2.09,3,4.92,2.45,9.05,2.54,11.62-1.81,3.81-1.1,6.98-2.02,10.16-2.94,3,.89,6.22,1.9,9.11,1.31,7.11-1.45,13.55-.73,19.74,4.16ZM187.51,229.43c-4.02,6.27-7.12,11.89-10.98,16.94-5.37,7.04-10.43,10.46-15.84,11.63,1.33-1.02,2.3-1.64,3.12-2.42,4.59-4.31,9.66-8.24,13.56-13.11,3.8-4.75,6.5-10.42,9.41-15.83,.71-1.32,.63-3.27,.39-4.85-1.46-9.71-2.9-19.43-4.66-29.09-1.64-9-9.28-13.02-17.68-9.4-7.01,3.01-12.75,7.76-17.71,13.54-11.36,13.23-12.51,33.18-2.31,46.2,.09,.12-.16,.51-.28,.85-.42-.29-.88-.51-1.21-.85-.58-.6-1.11-1.25-1.59-1.92-5.69-7.94-7.08-16.93-5.33-26.21,2.93-15.48,12.8-25.76,26.42-32.74,3.35-1.72,7.03-2.78,10.71-4.2-.1-.86-.05-1.71-.3-2.46-2.7-8.21-7.11-15.44-13.11-21.61-10.06-10.35-26.9-11.94-38.01-3.71-8.51,6.3-14.51,14.43-18.39,24.37-7.1,18.18-7.67,36.71-3.51,55.5,2.46,11.13,7.49,21.1,16.17,28.7,13.23,11.59,28.72,15.67,46.03,12.52,8.91-1.62,16.74-5.36,23.03-12.09,2.28-2.43,3.7-4.9,3.46-8.42-.33-4.81-.12-9.66-.32-14.49-.08-2.03-.62-4.05-1.08-6.86Zm-1.38,104.76l1.73,.53c-.21,1.54-.17,3.17-.67,4.61-2.98,8.45-2.2,16.73,1.05,24.88,2.67,6.71,5.47,13.37,8.22,20.05l.92-.34c-1.04-5.85-2.42-11.66-3.04-17.55-.8-7.58-1.05-15.23-1.37-22.85-.04-1.05,.84-2.14,1.3-3.21l1.48,.06c.45,1.75,1.16,3.49,1.3,5.26,.51,6.64,.69,13.3,1.26,19.93,.53,6.17,1.5,12.29,4.09,18.03,.28-1.01,.25-1.96,.09-2.89-1.04-6.07-2.2-12.12-3.14-18.2-.36-2.32-1.06-5.01,2.84-6.72,2.91,6.12,1.44,13.05,3.66,19.03l1.06-.08v-10.97l1.2-.25c4.77,4.77,4.29,12.4,8.72,17.11,.78,7.14,3.69,12.93,8.57,16.28,0-1.87,.41-3.41-.06-4.6-3.82-9.57-7.71-19.12-11.8-28.57-1.77-4.09-4.55-7.79-6.06-11.95-3.24-8.96-2.16-18.04-.22-24.53,6.14-11.63,14.48-18.86,19.08-29.17,5.67-1.53,7.32-7.97,11.57-11.78,4.44-3.98,8.54-8.35,13.29-13.04,.32-1.05,.86-2.86,1.49-4.98,1.94,.84,3.27,1.42,4.9,2.14,2.06-1.07,4.18-2.17,7.18-3.72-2.29-.59-3.46-.9-4.78-1.24,.55-1.91,1-3.48,1.64-5.69-4.06-4.15-1.66-9.96-2.48-15.69-2.74,.52-4.82,.98-6.92,1.3-21.68,3.24-32.76-8.21-36.02-26.23-1.66-9.19-.74-18.94-.25-28.39,.32-6.12,1.89-12.18,5.35-17.51,2.23-3.44,4.39-6.92,7-11.05-2.78,.14-5.05,.18-7.31,.38-8.25,.73-16.49,1.63-24.74,2.21-4.25,.3-8.53,.05-13.11,.05,0,1.91-.14,3.06,.02,4.17,1.16,8.01,2.43,16.01,3.57,24.03,.89,6.26,1.54,12.56,2.46,18.81,1.51,10.19,3.12,20.34,3.18,30.71,.03,4.53,1.42,9.04,2.19,13.57l.35-.05c.28,2.55,.55,5.1,.91,8.35-.86,.6-2.23,1.54-2.61,1.8-4.86,29.52-9.52,57.85-14.19,86.18,4.13-5.44,1.66-13.4,7.11-18.19Zm233.34-66.25c6.65-1.91,11.51-4.99,15.85-8.88,11.34-10.17,21.05-21.82,29.97-34.09,6.16-8.47,11.96-17.19,14.79-27.58,2.6-9.52,1-18.55-2.41-27.33-2.74-7.05-8.48-9.72-17.16-8.78-13.8,1.49-25,8.66-35.77,16.67-1.9,1.42-2.52,3.4-1.07,5.98,1.32-.49,2.51-.98,3.73-1.39,10.79-3.67,21.67-6.74,33.25-4.68,4.34,.77,8.39,2.2,11.1,6.11-6.12-2.9-12.23-5.45-19.39-4.17,5.54,15.03,6.23,19.5,4.38,27.57-2.45,10.68-7.66,20.2-13.29,23.75,1.41-2.22,2.61-4.01,3.72-5.86,5.51-9.18,9.27-18.83,8-29.83-.68-5.88-2.19-11.39-7.02-15.87-9.38,.8-18.17,3.19-25.31,8.2-4.24,12.62-8.18,24.39-12.21,36.4,7.65,4.7,12.18,11.6,11.34,21.09,4.81,2.49,9.11,.11,13.45,0-4.34,3.04-9.26,3.25-14.43,3-1.25,1.54-2.5,3.07-3.85,4.74,.74,4.78,1.48,9.48,2.33,14.96ZM152.72,584.09c9.85-9.44,19.38-18.57,29.13-27.91-2.96-6.21-5.86-12.16-8.66-18.16-2.98-6.39-5.02-12.93-4.16-20.2,.91-7.64,2.43-15.01,5.62-22.08,1.38-3.05,1.78-6.55,2.63-9.85l-1-.73c-5.61,2.74-8.73,8.4-13.21,12.46-4.79,4.34-9.09,9.2-13.8,13.64-4.59,4.32-9.32,8.49-14.17,12.51-4.98,4.13-10.23,7.95-15.28,12.01-4.83,3.89-9.54,7.92-14.71,12.23,17.03,11.83,34.27,21.96,47.61,36.08Zm127.47-428.04c-.89-.29-1.37-.61-1.82-.57-12.94,1.21-25.88,2.35-38.79,3.8-1.94,.22-4.04,1.57-5.53,2.98-7.23,6.83-11.74,15.26-13.7,25.01-1.98,9.86-1.19,19.33,4.95,27.68,9.94,13.51,24.94,17.23,40.52,20.86,1.04-7.93,5.14-13.86,11.02-19.54-8.05-2.16-15.68-2.22-22.22-6.08,8.56,.33,16.8,3.88,25.42,3.12l.39-1.23c-2.36-2-4.72-4.01-6.67-5.67-16.44,1.06-29.81-.72-33.18-4.83,10.6,1.22,20.64,3.68,31.71,2.12-1.28-2.77-2.26-4.9-3.11-6.75-4.65-.39-8.63-.7-12.6-1.05-7.01-.63-13.96-.83-20.75,1.55-1.9,.66-3.42-.04-4.36-2.33,12.04-3.09,23.93-2.13,35.85-.82-1.4-21.69,1.2-24.61,12.86-38.25Zm-98.15,110.59c-11.41,7.95-23.83,10.26-36.91,8.88-13.34-1.41-24.47-7.91-34.02-16.59-2.78,1.21-1.49,6.64-6.55,4.52,.22-2.09,.43-4.16,.66-6.42-1.29-2-2.63-4.08-4.06-6.31,1.42-3.61,.67-6.41-3.11-8.13-.83-.37-1.5-1.36-1.97-2.21-5.7-10.38-9.26-21.38-9.17-33.33,.01-1.57,.9-3.14,1.39-4.71l1.57,.06c.42,1.77,.94,3.53,1.24,5.32,.85,5.04,1.61,10.09,2.41,15.14,1.64-8.93-1.16-17.67,1.01-26.44,2.14-8.66,3.99-17.39,5.95-26.04-1.36-.74-2.57-1.41-4.22-2.3,2.43-3.04,4.58-5.73,6.33-7.92,.16-3.36,.29-6.13,.36-7.59,10.21-11.63,22.39-16.53,36.76-17.41-6.4-5.13-7.34-5.7-11.87-5.2-6.58,.72-12.77,2.78-17.67,7.39-5.46,5.14-10.3,10.81-13.55,17.7-5.89,12.5-11.91,24.95-17.79,37.45-3.5,7.45-4.72,15.21-2.59,23.33,.46,1.77,.73,3.59,1.18,5.37,2.87,11.31,6.25,22.43,12.18,32.32l4.51,2.33-1.31,4.19c1.98,2.93,3.92,5.82,5.89,8.7,5.03,7.35,12.48,11.24,20.84,12.49,9.51,1.43,19.21,1.59,28.84,2.12,1.73,.09,3.66-.42,5.24-1.17,3.11-1.48,6.05-3.34,8.96-4.98,4.59,2.12,8.34-.53,12.36-1.27,4.84-.89,7.44-3.43,7.11-9.29Zm-6.39,240.11l-1.42-.27c-.56,1.27-1.4,2.49-1.64,3.81-1.5,8.43-2.44,16.83,1.89,24.86,1.66,3.07,2.75,6.45,4.48,9.47,11.91,20.78,23.92,41.51,35.93,62.23,.64,1.11,1.54,2.06,2.81,3.73,2.08-1.82,4.07-3.23,5.64-5.02,1.63-1.86,2.97-4.01,4.22-6.17,2.37-4.11,5.54-7.02,10.39-7.8,.58-.09,1.1-.55,2.41-1.24-3.79-3.85-7.18-7.42-10.7-10.85-14.92-14.51-29.75-29.07-43.01-45.18-5.92-7.19-9.57-15.11-10.26-24.41-.08-1.07-.48-2.12-.73-3.17Zm190.08,68.1c5.85-9.15,11.18-17.49,16.5-25.81-18.08-14.61-35.66-28.82-54.23-43.84,13.86,17.17,19.32,36.47,21.91,56.56,5.27,4.37,10.23,8.47,15.82,13.1Zm113.54-364.88c-.94,1.38-1.66,2.3-2.23,3.3-7.33,12.92-16.63,24.42-26.06,35.79-4.38,5.29-8.75,10.76-15.06,14.37-.56,1.12-1.22,2.43-1.52,3.03-4.6,1.98-8.51,3.66-12.35,5.31,.49,1.32,.87,2.04,1.02,2.81,.14,.74,.03,1.52,.03,3.13,6.48-3.43,13.14-5.35,15.13-12.16,1.42-.45,2.63-.51,3.35-1.14,1.87-1.64,3.47-3.59,5.27-5.32,4.19-4.03,8.15-8.36,12.71-11.92,16.37-12.78,28.72-28.08,32.76-49.08,2.16-11.19,1.94-22.19-1.61-33.05-.77-2.34-1.96-4.54-2.96-6.82-1.35,.4-2.39,.7-3.09,.91-2.33-1.47-4.3-2.72-6.27-3.97-.2,4.84-.52,9.15,2.01,12.8,2.41,3.48,5.06,6.8,7.6,10.19,1.19,.33,2.39,.66,3.07,.85-2.59,11.44-5.09,22.51-7.75,34.23-1.73-1.4-2.71-2.19-4.05-3.27Zm-176.73-24.88l8.16,1.41c.55-.97,1-1.76,1.73-3.03-3.6-1-6.78-1.87-10.48-2.9,4.71-1.99,8.72-3.69,13.59-5.75-3.99-2.43-7.35-4.87-11.04-6.59-3.85-1.8-8-2.35-11.84,.46-6.05,4.43-10.5,10.05-12.93,16.95,3.78,14.57,11.89,22.62,20.2,20.31-.41-2.39-.82-4.78-1.16-6.75,3.74-5.04,8.15-.57,12.41-1.82-.34-2.51-.66-4.86-1-7.39-3.39-.45-6.24-1.22-7.61-4.88Zm56.3,12.48c.51,1.83,1.01,2.93,1.11,4.06,.43,5.15,3.81,7.57,8.01,9.85,12.15,6.61,25.6,7.85,39,10.31,4.32-3.57,5.36-8.34,6.04-13.99-5.2,1.52-8.52,5.88-13.82,5.03,1.09-1.22,2.4-2.01,3.73-2.75,2.32-1.29,4.82-2.33,6.96-3.87,3.81-2.75,5.05-8.26,2.77-12.52-4.82,10.88-11.89,20.11-24.07,20.54-12.16,.43-21.47-6.14-25.63-18.73-1.66,.83-2.75,1.39-4.11,2.07Zm-40.13-22.41c-.95,1.96-1.5,3.1-1.96,4.05,3.96,4.29,3.04,9.61,4.01,15.3,2.78-6.17,.6-11.9,2.59-17.55,1.09,2.95,2.19,5.89,3.63,9.78,.29-2.03,.61-3.11,.57-4.18-.66-19.23-15.74-31.67-34.5-28.51-5.25,.88-9.29,4.7-10.93,10.57,5.38-7,12.21-9.4,20.46-7.46,7.17,1.69,15.68,8.23,16.39,13.21-2.4-1.97-4.17-4.61-6.45-6.68-2.28-2.06-5.18-3.26-8.91-2.53l2.69,1.37c-2.83,.44-4.7,.73-6.16,.95,5.01,5.19,13.39,5.7,18.57,11.66Zm95.6,82.51c-8.62,.99-12.08,6.24-9.67,13.35,.69,2.02,1.71,3.96,2.76,5.83,3.67,6.55,7.42,13.06,11.7,20.57-1.66-13.8-3.21-26.63-4.79-39.75Zm-90.47-37.64c8.23-.78,16.45-1.85,24.7-2.25,8.07-.39,16.18-.08,25.24-.08-17.96-11.11-34.15-6.18-49.94,2.34Zm-2.3-18.43c-2.8,2.14-4.62,3.92-6.78,5.09-3.02,1.63-6.17,3.55-9.46,4.04-8.87,1.34-19.83-3.87-24.27-13.14-2.84-5.92-4.64-12.03-3.49-18.72,.37-2.18,.5-4.4,.84-7.6-2.55,4.8-2.74,7.65-2.42,15.4,.64,15.26,11.3,23.36,22.24,25.94,9.66,2.27,17.59-1.34,23.34-11Zm58.94,469.45c7.29-2.38,13.93-4.91,19.65-9.33,2.78-2.15,2.88-4.18,.76-8.33-1.35,.89-2.92,1.51-3.88,2.64-3.74,4.43-8.05,7.91-13.69,9.6-2.08,.62-3.44,1.92-2.83,5.41Zm17.95-464.96c-1.68,.54-3.34,1.46-5.04,1.53-3.07,.14-6.5,.6-9.17-.52-7.66-3.21-12.63-9.08-13.85-17.53-.76-5.25-1.46-10.54,.95-15.67,.67-1.42,.8-3.08,1.18-4.63l-.95-.27c-.92,2.91-2.06,5.78-2.73,8.75-2.7,12.12,2.37,24.32,12.38,30.19,6.21,3.64,11.74,3.32,17.22-1.84Zm14.57-40.79l-1.31,.36c.91,3.92,2.18,7.79,2.63,11.76,.46,4.02,.1,8.14,.1,13.04,1.92-.66,3.43-1.18,5.1-1.75-.02-8.86-.55-16.98-6.52-23.41Zm-62.27,42.67c-9.76-3.98-27.19,1.84-34.68,12.42,10.93-7.44,22.51-10.63,34.68-12.42Z"/><path class="cls-2" d="M4,685.66c1.16-4.15,2.16-8.36,3.5-12.45,6.64-20.38,13.44-40.72,20.04-61.11,2.65-8.2,4.8-16.56,7.46-24.76,.88-2.71,2.63-5.14,3.58-6.95,6.14-1.73,10.77-.39,15.19,1.7,15.31,7.24,29.1,16.73,41.31,28.49,.45,.43,1,.77,1.79,1.37-1.5-4.23-4.22-7.45-13.58-14.83-5.21-4.1-10.7-7.92-16.39-11.32-5.82-3.48-12.04-6.3-18.08-9.4,2.65-2.88,39.96-19.67,55.12-24.7,1.5,.71,3.54,1.43,5.32,2.56,11.54,7.33,22.49,15.46,32.47,24.79,2.94,2.75,4.93,6.52,7.57,10.11-3.32,3.74-6.16,6.94-8.98,10.12l4.5,10.06c.9,1.01,2.15,2.4,3.4,3.79,3.3,3.68,6.79,7.21,9.87,11.06,5.28,6.61,10.17,13.53,15.49,20.11,4.05,5.01,8.46,9.74,12.8,14.51,7.63,8.38,14.91,17.01,20.62,26.86H127c-.95-6.02-1.47-12.15-2.97-18.03-2-7.85-4.69-15.52-7.24-23.22-.88-2.67-2.25-5.17-3.4-7.75-.29,.11-.58,.22-.87,.32v8.91c.39,4.09,6.31,7.46,1.43,12.41,3.49,1.32,3.96,4.69,3.3,6.78-1.72,5.45,.53,9.94,2.09,14.7,.1,.3,.04,.66,.05,.99l-.58,.03c.06,1.62,.13,3.24,.19,4.85H4Z"/><path class="cls-2" d="M213,685.66c-4.27-5.3-8.51-10.63-12.8-15.91-8.48-10.43-17-20.84-25.5-31.26-8.08-9.91-16.18-19.8-24.23-29.74-2.28-2.82-4.39-5.77-6.95-9.14,13.36-13.69,26.41-27.05,39.93-40.9,24.87,43.82,51.24,85.68,78.54,126.95h-49Z"/><path class="cls-2" d="M335,685.66c2.51-9.47,5.51-18.85,7.4-28.44,2.79-14.18,5.2-28.46,6.98-42.8,1.27-10.21,1.32-20.58,1.74-30.88,.17-4.14-.15-8.3-.17-12.45,0-.91,.3-1.82,.64-3.79,12.83,10.07,25.03,19.65,36.91,28.97,1.58,13.33,.39,25.72-1.69,38.07-2.76,16.32-7.43,32.05-14.46,47.05-.63,1.34-.9,2.85-1.34,4.27h-36Z"/><path class="cls-2" d="M408,685.66c-.1-6.15,.37-12.38-.48-18.43-.79-5.63-2.58-11.23-4.75-16.51-1.06-2.58-1.96-4.43,.35-6.53-.62-1.19-1.15-2.2-1.45-2.78-.14-16,3.39-31.36,2.94-47.86-3.36,6.11-7.01,38.74-6.83,58.21-3.22,2.44-4.99,7.57-11.42,6.83,0-1.67-.19-3.13,.03-4.53,1.68-10.81,3.86-21.57,5.05-32.43,.84-7.73,.57-15.62,.35-23.42-.05-1.84-1.5-4.06-2.97-5.36-4.1-3.62-8.59-6.81-12.85-10.26-1.91-1.55-3.64-3.31-5.94-5.42,4.54-8.07,8.92-15.87,13.61-24.21,7.49,4.97,14.63,9.71,21.72,14.41,.3,1.74,.54,3.19,.87,5.11,.89-.62,1.6-1.11,2.95-2.06,.93,2.12,2.16,4.05,2.62,6.14,3.2,14.61,6.28,29.25,9.33,43.89,2.47,11.87,5.02,23.73,7.21,35.66,1.8,9.8,3.11,19.7,4.64,29.55h-25Z"/><path class="cls-2" d="M299,685.66c-7.96-6.57-16-13.04-23.85-19.75-15.96-13.64-31.86-27.35-47.65-41.17-2.68-2.35-4.73-5.42-7-8.07,2.78-8.49,6.94-15.16,13.91-19.71,3.97-2.6,8.37-3.3,12.83-1.06,2.37,1.2,4.86,2.32,6.92,3.95,4.66,3.7,7.54,8.5,6.94,14.7-.56,5.83,1.66,10.05,6.02,13.94,10.19,9.09,20.07,18.54,29.92,28.01,3.33,3.2,6.16,6.92,9.09,10.25-.75,6.69-1.44,12.8-2.12,18.91h-5Z"/><path class="cls-2" d="M306,685.66c5.7-27.75,13.26-54.79,29.62-79.29,2.69,1.59,4.87,2.89,7.43,4.41-7.86,26.69-19.76,51.09-33.06,74.89h-4Z"/><path class="cls-2" d="M265,685.66c.21-1.87-.31-3.21-1.64-4.83-3.15-3.82-5.8-8.07-8.41-12.29-.67-1.08-.45-2.7-.61-3.85-7.03-8.88-13.75-17.88-18.11-28.71,2.9,2.29,5.88,4.49,8.68,6.89,9.33,7.98,18.63,16,27.89,24.06,7.11,6.19,14.13,12.48,21.2,18.73h-29Z"/><path class="cls-2" d="M313,685.66c4.02-7.65,8.22-15.21,12.03-22.96,6.9-14.01,12.96-28.39,17.98-43.19,.15-.43,.46-.81,1.14-1.98,.94,14.3-3.25,27.06-5.67,40.19-.51,.21-1.2,.49-1.83,.74-.09,.28-.21,.45-.18,.59,1.22,5.33-1.68,10-2.43,15.01-.58,3.88-1.35,7.73-2.04,11.6h-19Z"/><path class="cls-2" d="M376,685.66c1.48-3.69,2.96-7.39,4.68-11.68,7.44-2.64,14.55-7.1,23.23-9.96,1.17,7.83,.95,14.74,1.08,21.63h-29Z"/><path class="cls-1" d="M119,685.66c-.06-1.62-.13-3.24-.19-4.85l.58-.03c-.01-.33,.04-.68-.05-.99-1.55-4.76-3.81-9.25-2.09-14.7,.66-2.08,.19-5.45-3.3-6.78,4.88-4.95-1.05-8.32-1.43-12.41v-8.91c.29-.11,.58-.22,.87-.32,1.15,2.58,2.52,5.08,3.4,7.75,2.55,7.7,5.24,15.37,7.24,23.22,1.5,5.88,2.02,12.01,2.97,18.03h-8Z"/><path class="cls-2" d="M358.72,232.33v-11.79c.26-.18,.52-.35,.78-.53,.67,1.05,1.78,2.05,1.92,3.16,.61,4.92,1.86,10.02,1.15,14.8-1,6.66-3.42,13.13-5.48,19.61-1.79,5.63-3.09,10.83-.11,16.79,5.96,11.89,8.45,30.6,6.71,43.45-1.88,2.24-3.77,4.49-6.07,7.23-3.42-1.33-6.87-2.67-10.83-4.22,6.22,7.6,22.42,8.51,31.02,1.52-4.45,.86-8.04,1.55-11.9,2.3-.26-1.39-.7-2.36-.56-3.23,2.27-14.5,.15-28.56-4.2-42.37-2.93-9.31-2.33-18.4,1.2-27.36,3.81-9.67,5.01-19.6,2.87-30.6,3.24-.07,5.96-.28,8.67-.18,10.47,.39,20.99,.31,31.09,3.79,5.23,1.81,9.43,4.93,12.31,9.67,4.3,7.1,1.93,15.38-5.48,19.07-6.81,3.39-14.07,3.75-21.47,2.95-3.25-.35-6.5-.7-9.74-1.06-.13,.35-.26,.7-.39,1.05,.77,.65,1.47,1.41,2.32,1.92,1.13,.69,2.32,1.45,3.59,1.74,8.23,1.92,12.26,7.99,16.17,14.86,13.34,23.43,21.9,48.5,26.93,74.87,1.24,6.47,1.14,12.94-.34,19.35-1.56,6.75-4.32,12.73-9.57,17.69-10.19,9.65-20.9,18.57-32.47,26.51-11.82,8.11-25.08,12.04-39,14.53-18.47,3.31-37.01,4.67-55.7,2.61-11.52-1.27-22.58-4.18-32.69-10.11-4.31-2.53-8.61-5.08-12.97-7.5-7.79-4.32-12.88-10.97-16.26-18.98-3.56-8.44-6.76-17.02-10.27-25.48-1.4-3.37-3.2-6.58-4.82-9.86-1.32-2.68-2.81-5.3-3.95-8.06-3.86-9.29-3.2-18.29,2.45-26.66,9.32-13.83,19.33-27.13,30.95-39.15,4.91-5.08,10.42-9.32,16.89-12.25,6.97-3.15,13.93-6.32,21.01-9.54,5.33,3.08,10.84,3.83,16.5,1.88,6.43-2.21,12.28-5.49,17.72-9.43l-.16-1.37c-1.66-.38-3.3-.94-4.97-1.1-5.14-.5-10.29-.8-15.43-1.28-6.3-.58-12.61-1.1-18.88-1.95-5.07-.69-7.73-3.46-8.71-8.28-2.55-12.52,7.02-24.6,19.71-24.37,11.58,.21,22.14,4.19,32.13,9.88,2.63,1.5,5.43,2.73,8.15,4.08,.22-.44,.44-.89,.67-1.33-2.88-1.55-5.75-3.1-8.63-4.64,.1-.42,.21-.84,.31-1.26,11.34-1.83,22.76-3.07,35.04-3.82,.77,4.3,1.49,8.29,2.21,12.28l.61,.19Zm-108.76,130.39c1.8,.19,3.68,.14,5.4,.62,14.87,4.13,30.09,5.79,45.43,6.35,26.51,.98,52.99,.11,79.35-2.89,11.08-1.26,22.14-2.87,33.08-5,10.91-2.12,14.81-10.48,10.3-20.68-.67-1.52-1.45-3.01-2.37-4.39-6.51-9.77-17.42-13.03-28.33-8.8-14.46,5.61-29.25,5.88-44.19,2.21-17.64-4.32-33.89-12.04-49.46-21.14-10.82-6.33-21.18-13.45-31.77-20.24,1.03-1.43,1.91-2.65,2.79-3.87-4.68,1.85-8.69,4.46-12.87,6.78-7.72,4.29-14.19,9.99-19.12,17.26-5.88,8.68-11.47,17.57-17.11,26.41-.88,1.38-1.56,2.97-1.99,4.55-.95,3.48,.03,5.13,3.23,6.83,2.63,1.39,5.2,2.94,7.65,4.63,5.98,4.11,11.87,8.35,18.11,12.75,.5-.38,1.26-.96,2.01-1.53l-.15,.14Zm112.39-96.53c1.84-3.48,3.51-7.45,5.9-10.93,2.02-2.95,5.12-4.13,9.07-4.12,6.26,.02,12.55-.63,18.76-1.47,3.12-.42,6.04-1.96,6.85-5.54-1.75-4.2-3.33-5.65-8.1-6.36-20.06-2.96-32.88,13.37-32.48,28.42Zm-24.28,1.21c.26-.41,.58-.68,.56-.92-.05-.65-.18-1.31-.39-1.93-3.39-9.63-9.78-16.44-19.27-20.26-10.71-4.31-21.93-6.53-33.33-7.99-2.65-.34-4.96,.05-6.17,2.86,.56,2.87,2.78,3.64,5.05,4.25,8.7,2.32,17.5,3.75,26.56,3.56,8.48-.17,15.65,2.7,20.48,10.08,2.22,3.39,4.32,6.86,6.51,10.36Zm8.66,114.32c4.04-1.85,6.52,.57,9.11,2.04,.66-1.07,1.15-1.87,2-3.25,6.27,.58,12.6,1.16,18.79,1.72-.2-1.28-.49-3.12-.75-4.72-21.9,1.11-43.72,2.22-65.85,3.34,.1,1.07,.18,1.95,.26,2.86,11.35-.68,22.38-1.35,33.02-1.99,1.47,2.03,2.4,3.32,3.96,5.48-.25-2.54-.39-3.96-.54-5.48Z"/><path class="cls-2" d="M330.27,561.26c-6.19-4.89-12.63-5.61-19.74-4.16-2.9,.59-6.12-.42-9.11-1.31-3.18,.92-6.35,1.84-10.16,2.94-2.57,4.34-6.7,4.25-11.62,1.81-.62-.89-1.46-2.1-2.09-3-5.87,2.62-11.66,5.19-17.81,7.93-8.75-8.61-17.56-3.87-26.91,.87-9.67-7.23-19.45-14.54-29.24-21.86,.05-.44,.1-.87,.14-1.31,1.4-.48,2.79-1.33,4.21-1.39,9.8-.41,19.62-.66,29.43-.95,1.44-.04,2.88,0,4.69,0-.61-2.9-2.56-2.99-4.25-3.09-12.27-.73-24.56-2.1-36.8-1.8-8.25,.21-12.86-3.62-16.24-9.89-4.2-7.77-6.03-16-4.12-25.01,2.38-11.19,4.32-22.48,6.13-33.78,.84-5.24,1.09-10.6,1.28-15.92,.53-15.64,.89-31.29,1.33-46.93,.03-.93,.16-1.86,.59-2.85,2.62,6.1,3.42,12.89,7.6,19.08,.95-1.47,1.5-2.2,1.92-3.01,.37-.72,.59-1.51,1.2-3.16,4.42,4.65,4.64,10.7,7.58,15.31,2.89,4.52,5.15,9.43,8.35,14.01,2.65-5.05,.65-10.48,2.08-16.23,4.57,5.74,10.77,8.46,14.13,14.69,2.29,4.25,6.91,7.24,10.5,10.79,.41-.17,.83-.34,1.24-.52-.29-2.76-.58-5.52-.93-8.82,3.06,2.82,5.87,5.08,8.29,7.7,7.03,7.58,16.17,12.19,24.56,17.85,2.27,1.53,4.65,2.42,7.52,1.32,3.5-1.34,5.96,1.21,8.65,2.74,1.44,.82,2.9,1.59,4.63,2.54,.85,20.46,9.1,38.38,22.81,53.98,.97,1.1,2.39,1.8,3.59,2.69,.38-.36,.76-.71,1.15-1.07-.87-1.21-1.58-2.58-2.63-3.61-8.66-8.46-13.66-19.09-18.08-30.09-.77-1.9-1.46-3.76,.8-6.07,1.83,.76,4.01,1.42,5.95,2.49,11.84,6.53,20.22,16.46,25.58,28.55,11.38,25.63,15.3,52.27,8.75,79.95-.38,1.59-1.04,3.11-1.83,5.42-2.04-1.3-3.72-2.36-5.73-3.64,1.25-2.3,2.23-4.18,3.27-6.03,3.84-6.84,4.36-13.95-.38-20.27-8.15-10.86-5.81-10.45-6.66-24.28-.41-6.64-.78-13.3-1.66-19.88-1.56-11.7-7.68-21.04-16.09-29.06,4.42,7.97,10.88,14.84,13.08,23.92-.96,2.75-1.89,5.38-3.13,8.94-2.52,.51-5.52,1.51-8.55,1.66-6.48,.32-12.99,.12-19.48,.31-2,.06-3.98,.69-5.98,1.06l-.13,1.24c.87,.54,1.7,1.44,2.61,1.54,2.64,.29,5.33,.51,7.97,.29,8.25-.66,16.27,.86,24.3,2.3,1.09,.19,2.08,.87,3.46,1.47v13.63Z"/><path class="cls-2" d="M187.51,229.43c.46,2.82,1,4.83,1.08,6.86,.2,4.83,0,9.67,.32,14.49,.24,3.51-1.19,5.98-3.46,8.42-6.3,6.73-14.13,10.47-23.03,12.09-17.31,3.15-32.8-.93-46.03-12.52-8.68-7.6-13.7-17.57-16.17-28.7-4.16-18.79-3.59-37.32,3.51-55.5,3.88-9.94,9.89-18.06,18.39-24.37,11.1-8.23,27.94-6.64,38.01,3.71,5.99,6.17,10.41,13.4,13.11,21.61,.25,.75,.2,1.6,.3,2.46-3.68,1.42-7.36,2.48-10.71,4.2-13.62,6.98-23.49,17.26-26.42,32.74-1.75,9.28-.36,18.27,5.33,26.21,.48,.68,1.02,1.32,1.59,1.92,.33,.34,.79,.56,1.21,.85,.12-.34,.37-.73,.28-.85-10.2-13.02-9.05-32.97,2.31-46.2,4.96-5.78,10.7-10.52,17.71-13.54,8.4-3.61,16.04,.4,17.68,9.4,1.76,9.66,3.21,19.38,4.66,29.09,.24,1.58,.31,3.53-.39,4.85-2.91,5.41-5.61,11.08-9.41,15.83-3.89,4.87-8.97,8.8-13.56,13.11-.83,.78-1.79,1.4-3.12,2.42,5.41-1.18,10.48-4.6,15.84-11.63,3.85-5.05,6.96-10.67,10.98-16.94Z"/><path class="cls-2" d="M186.13,334.19c-5.45,4.79-2.97,12.74-7.11,18.19,4.66-28.33,9.33-56.66,14.19-86.18,.38-.26,1.74-1.21,2.61-1.8-.35-3.25-.63-5.8-.91-8.35l-.35,.05c-.77-4.52-2.16-9.04-2.19-13.57-.07-10.37-1.67-20.52-3.18-30.71-.93-6.25-1.57-12.55-2.46-18.81-1.14-8.02-2.41-16.02-3.57-24.03-.16-1.11-.02-2.25-.02-4.17,4.58,0,8.87,.25,13.11-.05,8.26-.58,16.49-1.49,24.74-2.21,2.26-.2,4.53-.24,7.31-.38-2.61,4.13-4.77,7.62-7,11.05-3.46,5.33-5.03,11.39-5.35,17.51-.49,9.46-1.41,19.2,.25,28.39,3.25,18.02,14.34,29.47,36.02,26.23,2.1-.31,4.18-.78,6.92-1.3,.82,5.73-1.58,11.54,2.48,15.69-.64,2.21-1.09,3.78-1.64,5.69,1.32,.34,2.49,.65,4.78,1.24-3,1.56-5.13,2.66-7.18,3.72-1.64-.71-2.97-1.29-4.9-2.14-.64,2.12-1.18,3.93-1.49,4.98-4.75,4.69-8.85,9.06-13.29,13.04-4.25,3.81-5.9,10.25-11.57,11.78-4.6,10.31-12.93,17.54-19.08,29.17-1.94,6.49-3.03,15.57,.22,24.53,1.51,4.17,4.29,7.86,6.06,11.95,4.1,9.46,7.98,19,11.8,28.57,.47,1.18,.06,2.72,.06,4.6-4.88-3.35-7.79-9.14-8.57-16.28-4.43-4.7-3.95-12.34-8.72-17.11l-1.2,.25v10.97l-1.06,.08c-2.22-5.98-.75-12.91-3.66-19.03-3.9,1.72-3.2,4.4-2.84,6.72,.94,6.08,2.09,12.14,3.14,18.2,.16,.93,.19,1.89-.09,2.89-2.59-5.74-3.56-11.86-4.09-18.03-.57-6.63-.75-13.29-1.26-19.93-.14-1.78-.85-3.51-1.3-5.26l-1.48-.06c-.46,1.07-1.35,2.16-1.3,3.21,.32,7.62,.57,15.27,1.37,22.85,.62,5.89,2,11.7,3.04,17.55l-.92,.34c-2.74-6.68-5.54-13.34-8.22-20.05-3.25-8.15-4.02-16.42-1.05-24.88,.51-1.44,.46-3.07,.67-4.61l-1.73-.53Zm12.58-7.3c.86,5.16-1.04,10.55,1.87,15.65,5.26-5.11,3.51-23.52-2.04-28.54-3.48,3.29-4.66,10.54-2.21,14.87l2.38-1.99Z"/><path class="cls-2" d="M419.47,267.94c-.85-5.48-1.59-10.19-2.33-14.96,1.35-1.66,2.59-3.19,3.85-4.74,5.17,.25,10.09,.05,14.43-3-4.34,.11-8.64,2.49-13.45,0,.84-9.49-3.7-16.39-11.34-21.09,4.03-12.01,7.98-23.78,12.21-36.4,7.14-5.01,15.93-7.41,25.31-8.2,4.83,4.48,6.34,9.99,7.02,15.87,1.27,11-2.49,20.65-8,29.83-1.11,1.85-2.31,3.64-3.72,5.86,5.63-3.55,10.84-13.07,13.29-23.75,1.85-8.07,1.16-12.54-4.38-27.57,7.16-1.28,13.27,1.26,19.39,4.17-2.71-3.91-6.76-5.34-11.1-6.11-11.58-2.06-22.46,1.01-33.25,4.68-1.22,.41-2.42,.9-3.73,1.39-1.45-2.58-.84-4.56,1.07-5.98,10.77-8.01,21.97-15.19,35.77-16.67,8.68-.94,14.42,1.73,17.16,8.78,3.41,8.78,5.01,17.81,2.41,27.33-2.83,10.39-8.63,19.1-14.79,27.58-8.92,12.27-18.63,23.92-29.97,34.09-4.34,3.89-9.2,6.97-15.85,8.88Z"/><path class="cls-2" d="M152.72,584.09c-13.33-14.12-30.58-24.25-47.61-36.08,5.16-4.3,9.88-8.34,14.71-12.23,5.04-4.06,10.29-7.88,15.28-12.01,4.85-4.02,9.58-8.2,14.17-12.51,4.71-4.43,9.02-9.3,13.8-13.64,4.47-4.06,7.6-9.72,13.21-12.46l1,.73c-.85,3.3-1.25,6.79-2.63,9.85-3.19,7.07-4.72,14.44-5.62,22.08-.86,7.27,1.18,13.81,4.16,20.2,2.8,6,5.7,11.95,8.66,18.16-9.75,9.34-19.28,18.47-29.13,27.91Z"/><path class="cls-2" d="M280.19,156.05c-11.66,13.64-14.26,16.56-12.86,38.25-11.92-1.31-23.81-2.27-35.85,.82,.94,2.29,2.46,2.99,4.36,2.33,6.8-2.38,13.75-2.19,20.75-1.55,3.97,.36,7.95,.67,12.6,1.05,.85,1.85,1.84,3.98,3.11,6.75-11.07,1.56-21.11-.9-31.71-2.12,3.37,4.11,16.73,5.89,33.18,4.83,1.96,1.66,4.31,3.67,6.67,5.67l-.39,1.23c-8.62,.76-16.86-2.79-25.42-3.12,6.54,3.86,14.16,3.92,22.22,6.08-5.88,5.68-9.97,11.61-11.02,19.54-15.59-3.64-30.58-7.36-40.52-20.86-6.14-8.34-6.94-17.81-4.95-27.68,1.96-9.75,6.47-18.18,13.7-25.01,1.49-1.4,3.58-2.76,5.53-2.98,12.91-1.45,25.85-2.59,38.79-3.8,.44-.04,.92,.28,1.82,.57Z"/><path class="cls-2" d="M182.04,266.64c.33,5.85-2.26,8.39-7.11,9.29-4.02,.74-7.77,3.38-12.36,1.27-2.91,1.65-5.85,3.5-8.96,4.98-1.59,.76-3.51,1.27-5.24,1.17-9.63-.53-19.33-.69-28.84-2.12-8.36-1.25-15.81-5.15-20.84-12.49-1.97-2.88-3.91-5.77-5.89-8.7l1.31-4.19-4.51-2.33c-5.93-9.9-9.31-21.02-12.18-32.32-.45-1.78-.72-3.6-1.18-5.37-2.13-8.12-.91-15.88,2.59-23.33,5.88-12.51,11.9-24.95,17.79-37.45,3.25-6.89,8.09-12.57,13.55-17.7,4.9-4.61,11.09-6.67,17.67-7.39,4.53-.49,5.47,.08,11.87,5.2-14.37,.89-26.55,5.78-36.76,17.41-.07,1.46-.2,4.23-.36,7.59-1.75,2.19-3.9,4.88-6.33,7.92,1.64,.9,2.86,1.56,4.22,2.3-1.97,8.66-3.81,17.39-5.95,26.04-2.17,8.78,.62,17.52-1.01,26.44-.8-5.05-1.56-10.1-2.41-15.14-.3-1.79-.82-3.55-1.24-5.32l-1.57-.06c-.48,1.57-1.38,3.14-1.39,4.71-.09,11.96,3.47,22.95,9.17,33.33,.47,.85,1.14,1.84,1.97,2.21,3.78,1.71,4.54,4.52,3.11,8.13,1.44,2.23,2.78,4.31,4.06,6.31-.23,2.26-.45,4.33-.66,6.42,5.06,2.12,3.76-3.32,6.55-4.52,9.55,8.69,20.68,15.19,34.02,16.59,13.08,1.38,25.51-.93,36.91-8.88Z"/><path class="cls-2" d="M175.65,506.76c.25,1.06,.65,2.1,.73,3.17,.69,9.29,4.34,17.22,10.26,24.41,13.26,16.1,28.1,30.67,43.01,45.18,3.52,3.43,6.91,7,10.7,10.85-1.3,.69-1.83,1.14-2.41,1.24-4.85,.78-8.02,3.69-10.39,7.8-1.25,2.15-2.59,4.31-4.22,6.17-1.57,1.79-3.56,3.21-5.64,5.02-1.26-1.66-2.17-2.62-2.81-3.73-12.01-20.73-24.02-41.45-35.93-62.23-1.73-3.02-2.82-6.4-4.48-9.47-4.33-8.03-3.39-16.43-1.89-24.86,.23-1.33,1.08-2.54,1.64-3.81l1.42,.27Z"/><path class="cls-2" d="M358.1,180.84c-.7,3.92-1.85,7.82-1.99,11.76-.14,3.94,.74,7.91,1.25,12.57-17.99-4.32-32.84,.99-45.32,14.53-1.4-.46-2.88-.94-4.35-1.42-.17-.29-.34-.59-.5-.88,13.73-5.86,21.69-16.07,22.61-30.69,.91-14.53-5.63-25.64-18-33.38,3.26-2.21,27-5.19,36.69-4.58,.66,.91,1.73,2.39,2.8,3.87l.78-.41c-.5-1.16-1.01-2.33-1.55-3.57,2.74-1.71,3.97-.03,4.98,1.7,3.34,5.69,4.34,11.86,3.13,18.29-.85,4.53-2.08,8.99-3.31,14.17,1.36-.87,2.12-1.35,2.88-1.83l-.11-.12Z"/><path class="cls-2" d="M365.74,574.85c-5.59-4.62-10.54-8.73-15.82-13.1-2.59-20.09-8.05-39.39-21.91-56.56,18.58,15.02,36.16,29.23,54.23,43.84-5.32,8.32-10.65,16.66-16.5,25.81Z"/><path class="cls-2" d="M479.27,209.98c1.34,1.08,2.32,1.88,4.05,3.27,2.65-11.72,5.16-22.8,7.75-34.23-.68-.19-1.87-.52-3.07-.85-2.54-3.39-5.19-6.71-7.6-10.19-2.53-3.65-2.21-7.97-2.01-12.8,1.97,1.25,3.94,2.49,6.27,3.97,.69-.2,1.74-.51,3.09-.91,1,2.27,2.19,4.47,2.96,6.82,3.55,10.85,3.76,21.86,1.61,33.05-4.05,21-16.39,36.3-32.76,49.08-4.56,3.56-8.52,7.9-12.71,11.92-1.8,1.73-3.4,3.68-5.27,5.32-.71,.63-1.93,.68-3.35,1.14-1.98,6.81-8.64,8.73-15.13,12.16,0-1.61,.11-2.39-.03-3.13-.14-.76-.52-1.48-1.02-2.81,3.84-1.65,7.75-3.33,12.35-5.31,.3-.6,.96-1.91,1.52-3.03,6.31-3.61,10.67-9.08,15.06-14.37,9.43-11.37,18.73-22.87,26.06-35.79,.57-1,1.29-1.92,2.23-3.3Z"/><path class="cls-2" d="M358.2,180.96c.71-3.57,1.3-7.16,2.17-10.69,1.75-7.16,.81-13.87-2.94-20.21-.25-.42-.38-.91-.53-1.38-.04-.13,.06-.3,.22-1.02,1.1,.68,2.04,1.26,2.27,1.4,1.86-.94,3.24-2.09,4.76-2.33,9.54-1.5,19.07-3.15,28.68-4.01,5.05-.46,10.26,.31,15.34,.99,6.45,.87,10.28,4.83,11.99,11.13,1.53,5.64,2.4,11.22,.79,17.9-1.06-1.72-1.77-2.59-2.19-3.58-1.81-4.24-4.99-6.93-9.19-8.67-1.81-.75-3.66-1.71-5.1-3-11.82-10.66-27.79-7.68-37.04,5.81-1.86,2.71-2.91,5.96-4.46,8.9-1.55,2.93-3.25,5.78-4.88,8.66l.11,.12Z"/><path class="cls-2" d="M302.54,185.09c1.37,3.66,4.22,4.43,7.61,4.88,.34,2.53,.66,4.88,1,7.39-4.26,1.25-8.67-3.22-12.41,1.82,.34,1.97,.75,4.36,1.16,6.75-8.31,2.32-16.42-5.74-20.2-20.31,2.43-6.9,6.88-12.52,12.93-16.95,3.84-2.81,7.99-2.25,11.84-.46,3.69,1.72,7.05,4.17,11.04,6.59-4.87,2.06-8.88,3.76-13.59,5.75,3.71,1.02,6.88,1.9,10.48,2.9-.73,1.27-1.18,2.07-1.73,3.03l-8.16-1.41Zm-13.27-11.34c-3.76,3.08-4.39,7.11-4.68,11.11,4.09,8.1,9.55,10.72,15.63,7.07-1.01-6.52-.92-13.45-3.41-19.86h-3.81c.83,.91,1.48,1.63,2.14,2.35-.15,.24-.3,.49-.45,.73-1.7-.44-3.39-.88-5.42-1.41Z"/><path class="cls-2" d="M397.93,170.56c1.61,2.43,3.22,4.87,4.82,7.3-3.17,.6-5.88,1.12-9.01,1.71-.3-.37-.78-.95-1.49-1.83-.18,1.15-.32,2.04-.39,2.46,2.46,1.85,4.55,3.43,6.91,5.21q-2.84,1.31-7.68-1.03c-.31,3.35,2.43,4.43,4.53,6.25-.27,2.16-.55,4.35-.85,6.67-3.26-1.16-5.94-2.13-9.63-3.44-.51,3.5-.88,5.99-1.3,8.84-3.12-.12-5.27-2.13-7.04-4.44-4.04-5.28-5.3-11.56-4.72-17.92,.43-4.79,4.84-7.28,8.22-10.17,.86-.74,2.1-1.02,3.03-1.7,4.28-3.12,8.35-2.6,12.34,.52,.78,.61,1.61,1.15,2.41,1.72l-.17-.17Zm-10.78,19.29c.82-5.67,1.74-11.19,2.32-16.75,.1-.98-1.23-2.11-2.23-3.69-.71,1.62-1.01,2.31-1.42,3.24-1.37-.65-2.64-1.25-3.79-1.8-5.53,4.73-6.83,8.69-4.67,13.58,1.95,4.4,4.95,6.23,9.79,5.41Z"/><path class="cls-2" d="M358.84,197.57c1.36-.69,2.46-1.24,4.11-2.07,4.16,12.59,13.47,19.17,25.63,18.73,12.17-.43,19.25-9.66,24.07-20.54,2.28,4.26,1.04,9.77-2.77,12.52-2.14,1.54-4.64,2.58-6.96,3.87-1.34,.74-2.65,1.53-3.73,2.75,5.3,.85,8.61-3.51,13.82-5.03-.68,5.65-1.72,10.42-6.04,13.99-13.4-2.45-26.85-3.69-39-10.31-4.2-2.29-7.58-4.7-8.01-9.85-.09-1.13-.59-2.23-1.11-4.06Z"/><path class="cls-2" d="M318.71,175.16c-5.18-5.96-13.56-6.47-18.57-11.66,1.45-.22,3.33-.51,6.16-.95l-2.69-1.37c3.73-.73,6.63,.47,8.91,2.53,2.29,2.06,4.05,4.7,6.45,6.68-.7-4.98-9.21-11.53-16.39-13.21-8.25-1.94-15.09,.46-20.46,7.46,1.65-5.87,5.68-9.69,10.93-10.57,18.77-3.16,33.84,9.28,34.5,28.51,.04,1.07-.28,2.15-.57,4.18-1.45-3.89-2.54-6.84-3.63-9.78-1.99,5.64,.19,11.38-2.59,17.55-.96-5.69-.04-11.02-4.01-15.3,.46-.95,1.01-2.09,1.96-4.05Z"/><path class="cls-2" d="M414.31,257.67c1.58,13.12,3.13,25.96,4.79,39.75-4.28-7.5-8.03-14.01-11.7-20.57-1.05-1.87-2.07-3.81-2.76-5.83-2.41-7.12,1.05-12.37,9.67-13.35Z"/><path class="cls-2" d="M398.1,170.73c-1.07-1.63-2.14-3.26-3.22-4.91q3.73-1.55,8.79,1.93c1.02,1.98,2.02,3.93,3.03,5.89-1.86-13.08-14.69-20.11-25.98-14.87,3.2-5.31,9.4-7.4,15.56-4.34,3.61,1.79,7.16,4.48,9.62,7.63,6.31,8.08,7.49,17.4,4.53,27.27-.38-2.44-.77-4.88-1.15-7.33l-1.09,.02c-.92,4.05-1.85,8.1-2.77,12.15l-1.09-.15v-11.56h-.65c.66-1.14,1.33-2.27,2.1-3.58-1.02-4.28-4.46-6.29-7.84-8.33l.17,.17Z"/><path class="cls-2" d="M323.84,220.03c15.79-8.51,31.98-13.44,49.94-2.34-9.06,0-17.16-.3-25.24,.08-8.25,.4-16.47,1.47-24.7,2.25Z"/><path class="cls-2" d="M321.54,201.61c-5.75,9.66-13.68,13.28-23.34,11-10.94-2.57-21.6-10.67-22.24-25.94-.32-7.75-.14-10.6,2.42-15.4-.35,3.2-.47,5.42-.84,7.6-1.15,6.69,.66,12.8,3.49,18.72,4.44,9.27,15.41,14.48,24.27,13.14,3.29-.5,6.44-2.41,9.46-4.04,2.16-1.17,3.98-2.95,6.78-5.09Z"/><path class="cls-2" d="M380.48,671.06c-.61-3.49,.76-4.79,2.83-5.41,5.64-1.69,9.95-5.17,13.69-9.6,.96-1.13,2.53-1.75,3.88-2.64,2.12,4.15,2.02,6.18-.76,8.33-5.72,4.42-12.36,6.95-19.65,9.33Z"/><path class="cls-2" d="M398.43,206.09c-5.49,5.16-11.01,5.48-17.22,1.84-10.01-5.87-15.07-18.06-12.38-30.19,.66-2.97,1.8-5.84,2.73-8.75l.95,.27c-.38,1.55-.52,3.21-1.18,4.63-2.41,5.13-1.71,10.42-.95,15.67,1.22,8.45,6.19,14.32,13.85,17.53,2.67,1.12,6.1,.66,9.17,.52,1.7-.08,3.36-.99,5.04-1.53Z"/><path class="cls-2" d="M413,165.3c5.97,6.43,6.5,14.55,6.52,23.41-1.67,.57-3.18,1.09-5.1,1.75,0-4.9,.36-9.02-.1-13.04-.45-3.97-1.72-7.85-2.63-11.76l1.31-.36Z"/><path class="cls-2" d="M350.73,207.97c-12.17,1.79-23.75,4.98-34.68,12.42,7.49-10.58,24.92-16.4,34.68-12.42Z"/><path class="cls-1" d="M250.1,362.59c-.76,.58-1.51,1.15-2.01,1.53-6.24-4.41-12.14-8.64-18.11-12.75-2.45-1.69-5.02-3.24-7.65-4.63-3.2-1.69-4.17-3.34-3.23-6.83,.43-1.58,1.11-3.17,1.99-4.55,5.64-8.84,11.23-17.73,17.11-26.41,4.93-7.27,11.4-12.97,19.12-17.26,4.18-2.32,8.19-4.94,12.87-6.78-.88,1.22-1.76,2.44-2.79,3.87,10.59,6.79,20.95,13.91,31.77,20.24,15.56,9.1,31.81,16.81,49.46,21.14,14.94,3.66,29.73,3.4,44.19-2.21,10.91-4.24,21.82-.97,28.33,8.8,.92,1.38,1.7,2.87,2.37,4.39,4.51,10.2,.62,18.56-10.3,20.68-10.94,2.13-22.01,3.74-33.08,5-26.36,3-52.84,3.86-79.35,2.89-15.34-.57-30.57-2.22-45.43-6.35-1.72-.48-3.6-.43-5.4-.62,.83-1.79,1.45-3.72,2.52-5.36,4.72-7.27,7.21-15.29,8.11-23.83,.75-7.05,.44-13.92-3.94-19.71-5.45-1.37-10.54-2.65-16.07-4.04-.17,1.51-.43,2.77-.43,4.02,0,1.26,.27,2.51,.52,4.63-1.1-2.04-1.76-3.27-2.45-4.55-2.55,2.04-8.8,10.8-9.17,12.99-.18,1.1-.13,2.35,.18,3.41,3.36,11.32,9.09,21.37,16.63,30.38,.9,1.07,2.8,1.29,4.23,1.91Zm23.21-15.77c7.36,6.12,15.53,6.06,24.05,3.11,2.04-.71,4.07-1.48,6.06-2.33,5-2.12,8.1-5.72,8.63-11.27,.33-3.48,.59-6.97,.97-10.44,.35-3.19-.42-5.93-3.07-8.3-2.89-.16-6.26-3.24-8.89,1.35-.48-1.13-.92-2.16-1.3-3.05-8.75-3.48-24.32-5.24-30.59-3.45-.13,1.05-.27,2.15-.47,3.71-.79-1.72-1.39-3-2.07-4.48-1.32,.37-2.37,.66-3.58,1-1.67,7.91-1.03,15.37,2.6,22.41,1.98,3.84,4.42,7.45,6.65,11.16-3.05-3.57-6.1-7.15-9.03-10.58-3.07,8.14-6.1,16.21-9.22,24.5,.64,.28,1.34,.73,2.11,.9,.95,.21,2.05-.04,2.92,.32,9.54,4,19.73,3.93,29.77,4.64,1.66,.12,4.11-.32,4.97-1.44,2.8-3.62,5.07-7.67,4.18-13.16-2.54,.5-4.77,.98-7.01,1.38-6.97,1.22-13.26,.39-17.67-5.99Zm91.71-1.38c-2.75,.33-4.2,.55-5.66,.66-8.78,.72-17.54,1.67-26.34,2.03-7.38,.31-14.85,.07-19.21-7.01-4.23,3.47-8.03,6.58-12.22,10.01-1.14,3.18-2.48,6.91-3.73,10.37,.94,3.89,3.46,5.13,6.79,5,8.75-.35,17.37,2.06,26.23,.63,4.79-.77,9.87,.47,14.8,.34,5.98-.17,11.93-.9,17.37-4.67,.62-5.45,1.24-10.98,1.96-17.35Zm1.19,18.83c2.75,.37,5.01,1.03,7.22,.9,6.31-.4,12.63-.85,18.87-1.8,5.36-.82,10.63-2.31,15.92-3.58,3.26-.78,5.57-2.77,6.93-5.75-1.18-4.23-2.31-8.29-3.53-12.66-14.15,2.98-27.5,7.17-41.73,3.06-3.42,6.06-3.82,12.38-3.67,19.83Zm1.98-29.42c-19.12-.63-35.85-7.31-53.43-14.66-.33,6.22-.97,11.47-.75,16.69,.15,3.66,2.59,6.58,6.08,7.91,2.59,.98,5.45,1.7,8.2,1.72,7.81,.04,15.63-.11,23.42-.65,4.57-.32,9.08-1.52,13.81-2.36,.91-2.93,1.67-5.36,2.69-8.65Zm-125.51-27.52c7.26,3.28,14.08,4.76,21.09,2.66,1.11-1.81,1.93-3.15,2.99-4.89,.25,1.71,.41,2.81,.58,3.98,10.65,1.09,21.11,2.16,31.49,3.22-.03-.1-.04-.53-.25-.66-7.92-5.16-15.83-10.34-23.83-15.38-1.34-.84-3.14-1.56-4.63-1.42-5.25,.52-10.6,.96-15.66,2.34-5.05,1.37-8.74,5.01-11.78,10.14Zm170.86,24.69c-5.96-3.8-11.85-5.73-18.87-2.63-4.21,1.86-8.87,2.78-13.39,3.83-3.68,.86-7.46,1.28-11.42,1.92-.55,2.09-1.03,3.94-1.48,5.65,3.18,3.11,6.75,4.03,10.43,3.92,4.74-.15,9.49-.64,14.19-1.33,5.36-.78,10.73-1.68,15.97-3.01,4.5-1.14,5.21-2.8,4.56-8.35Zm-186.25-.72l-1.24-.35c-1.5,2.69-3.35,5.26-4.35,8.13-.48,1.37,.12,4,1.19,4.85,3.15,2.49,6.81,4.28,11.51,4.59-2.51-6.09-4.81-11.65-7.11-17.21Z"/><path class="cls-1" d="M362.34,266.19c-.4-15.05,12.43-31.38,32.48-28.42,4.76,.7,6.35,2.15,8.1,6.36-.81,3.58-3.73,5.12-6.85,5.54-6.21,.84-12.51,1.49-18.76,1.47-3.94-.01-7.04,1.17-9.07,4.12-2.39,3.48-4.06,7.45-5.9,10.93Z"/><path class="cls-1" d="M338.06,267.41c-2.19-3.5-4.29-6.97-6.51-10.36-4.83-7.38-12-10.25-20.48-10.08-9.06,.19-17.87-1.24-26.56-3.56-2.27-.61-4.49-1.38-5.05-4.25,1.22-2.81,3.53-3.2,6.17-2.86,11.4,1.46,22.62,3.68,33.33,7.99,9.48,3.82,15.87,10.63,19.27,20.26,.22,.62,.34,1.28,.39,1.93,.02,.24-.3,.51-.56,.92Z"/><path class="cls-1" d="M346.72,381.72c.15,1.51,.29,2.94,.54,5.48-1.56-2.17-2.49-3.45-3.96-5.48-10.63,.64-21.67,1.31-33.02,1.99-.08-.91-.16-1.79-.26-2.86,22.13-1.12,43.95-2.23,65.85-3.34,.25,1.6,.54,3.45,.75,4.72-6.19-.57-12.51-1.15-18.79-1.72-.85,1.38-1.34,2.18-2,3.25-2.6-1.47-5.07-3.89-9.11-2.04Z"/><path class="cls-1" d="M198.71,326.89l-2.38,1.99c-2.45-4.34-1.27-11.58,2.21-14.87,5.55,5.02,7.3,23.42,2.04,28.54-2.91-5.1-1.01-10.49-1.87-15.65Z"/><path class="cls-1" d="M289.27,173.75c2.03,.53,3.72,.97,5.42,1.41,.15-.24,.3-.49,.45-.73-.66-.72-1.31-1.45-2.14-2.35h3.81c2.49,6.41,2.4,13.34,3.41,19.86-6.08,3.64-11.55,1.03-15.63-7.07,.29-4,.92-8.03,4.68-11.11Z"/><path class="cls-1" d="M387.16,189.85c-4.84,.82-7.84-1.01-9.79-5.41-2.17-4.89-.86-8.85,4.67-13.58,1.15,.55,2.43,1.15,3.79,1.8,.4-.92,.71-1.62,1.42-3.24,.99,1.57,2.33,2.7,2.23,3.69-.58,5.56-1.49,11.08-2.32,16.75Z"/><path class="cls-2" d="M272.29,346.24c-2.23-3.71-4.66-7.32-6.65-11.16-3.64-7.04-4.27-14.51-2.6-22.41,1.21-.34,2.26-.63,3.58-1,.68,1.48,1.28,2.76,2.07,4.48,.2-1.56,.34-2.66,.47-3.71,6.27-1.79,21.84-.04,30.59,3.45,.38,.89,.82,1.93,1.3,3.05,2.63-4.59,6-1.52,8.89-1.35,2.66,2.37,3.42,5.11,3.07,8.3-.38,3.47-.64,6.96-.97,10.44-.52,5.56-3.63,9.15-8.63,11.27-1.99,.84-4.01,1.62-6.06,2.33-8.52,2.95-16.69,3.01-24.05-3.11l-1.02-.58Z"/><path class="cls-2" d="M365.02,345.43c-.72,6.38-1.35,11.9-1.96,17.35-5.44,3.77-11.39,4.51-17.37,4.67-4.94,.14-10.02-1.11-14.8-.34-8.87,1.44-17.49-.98-26.23-.63-3.33,.13-5.85-1.1-6.79-5,1.24-3.46,2.58-7.19,3.73-10.37,4.19-3.43,7.99-6.54,12.22-10.01,4.36,7.08,11.83,7.32,19.21,7.01,8.79-.36,17.56-1.32,26.34-2.03,1.46-.12,2.91-.34,5.66-.66Z"/><path class="cls-2" d="M250.1,362.59c-1.44-.62-3.34-.84-4.23-1.91-7.54-9.01-13.28-19.06-16.63-30.38-.32-1.07-.37-2.31-.18-3.41,.37-2.19,6.62-10.95,9.17-12.99,.69,1.28,1.35,2.51,2.45,4.55-.25-2.13-.52-3.38-.52-4.63,0-1.25,.26-2.51,.43-4.02,5.53,1.39,10.62,2.67,16.07,4.04,4.38,5.79,4.69,12.66,3.94,19.71-.91,8.54-3.39,16.56-8.11,23.83-1.06,1.64-1.69,3.56-2.52,5.36l.15-.14Z"/><path class="cls-2" d="M366.21,364.26c-.15-7.45,.24-13.77,3.67-19.83,14.23,4.1,27.58-.08,41.73-3.06,1.22,4.38,2.35,8.43,3.53,12.66-1.36,2.98-3.67,4.97-6.93,5.75-5.29,1.27-10.56,2.76-15.92,3.58-6.24,.95-12.57,1.4-18.87,1.8-2.21,.14-4.47-.53-7.22-.9Z"/><path class="cls-2" d="M368.19,334.84c-1.02,3.28-1.78,5.71-2.69,8.65-4.73,.84-9.24,2.05-13.81,2.36-7.79,.54-15.61,.69-23.42,.65-2.75-.01-5.61-.73-8.2-1.72-3.49-1.33-5.93-4.25-6.08-7.91-.22-5.22,.43-10.48,.75-16.69,17.58,7.35,34.31,14.04,53.43,14.66Z"/><path class="cls-2" d="M272.29,346.24l1.02,.58c4.41,6.37,10.7,7.21,17.67,5.99,2.24-.39,4.47-.87,7.01-1.38,.89,5.49-1.38,9.54-4.18,13.16-.86,1.12-3.31,1.56-4.97,1.44-10.04-.71-20.22-.64-29.77-4.64-.86-.36-1.97-.11-2.92-.32-.77-.17-1.47-.62-2.11-.9,3.12-8.29,6.16-16.36,9.22-24.5,2.93,3.43,5.98,7,9.03,10.58Z"/><path class="cls-2" d="M242.68,307.32c3.04-5.13,6.73-8.77,11.78-10.14,5.06-1.38,10.41-1.82,15.66-2.34,1.49-.15,3.3,.58,4.63,1.42,8,5.04,15.91,10.22,23.83,15.38,.2,.13,.21,.56,.25,.66-10.38-1.06-20.84-2.13-31.49-3.22-.17-1.17-.33-2.28-.58-3.98-1.07,1.74-1.89,3.08-2.99,4.89-7.02,2.1-13.83,.62-21.09-2.66Z"/><path class="cls-2" d="M413.54,332.02c.65,5.55-.07,7.21-4.56,8.35-5.24,1.33-10.61,2.23-15.97,3.01-4.7,.69-9.45,1.18-14.19,1.33-3.68,.11-7.25-.81-10.43-3.92,.45-1.7,.93-3.56,1.48-5.65,3.96-.65,7.74-1.07,11.42-1.92,4.52-1.05,9.18-1.98,13.39-3.83,7.02-3.09,12.9-1.17,18.87,2.63Z"/><path class="cls-2" d="M227.28,331.3c2.3,5.56,4.6,11.12,7.11,17.21-4.7-.31-8.36-2.1-11.51-4.59-1.07-.85-1.67-3.48-1.19-4.85,1-2.87,2.85-5.44,4.35-8.13l1.24,.35Z"/></g></g></svg>